<?xml version="1.0" encoding="UTF-8" standalone="no"?>
<!-- Created with Inkscape (http://www.inkscape.org/) -->

<svg
   xmlns:dc="http://purl.org/dc/elements/1.1/"
   xmlns:cc="http://creativecommons.org/ns#"
   xmlns:rdf="http://www.w3.org/1999/02/22-rdf-syntax-ns#"
   xmlns:svg="http://www.w3.org/2000/svg"
   xmlns="http://www.w3.org/2000/svg"
   xmlns:sodipodi="http://sodipodi.sourceforge.net/DTD/sodipodi-0.dtd"
   xmlns:inkscape="http://www.inkscape.org/namespaces/inkscape"
   width="210mm"
   height="297mm"
   viewBox="0 0 210 297"
   version="1.1"
   id="svg8"
   inkscape:version="0.92.4 (5da689c313, 2019-01-14)"
   sodipodi:docname="drawing2.svg">
  <defs
     id="defs2">
    <pattern
       patternUnits="userSpaceOnUse"
       patternTransform="translate(71.2312546444,104.970833998)"
       height="101.999999727"
       width="101.999999727"
       id="Voronoi4251">
      <path
         id="path819"
         style="stroke:#000000;stroke-width:0.264583333328"
         d="M 22.752,4.099 23.117,0.000 M 57.750,13.358 70.535,1.086 M 70.535,1.086 70.708,0.000 M 44.350,9.555 45.976,0.000 M 34.351,12.591 44.350,9.555 M 32.074,0.000 32.566,12.455 M 32.566,12.455 34.351,12.591 M 22.752,4.099 32.478,12.498 M 32.478,12.498 32.566,12.455 M 34.351,12.591 38.020,19.280 M 49.775,14.952 61.642,0.000 M 49.775,14.952 57.750,13.358 M 16.115,14.136 22.752,4.099 M 16.115,14.136 16.492,14.311 M 44.350,9.555 48.897,15.347 M 48.897,15.347 49.775,14.952 M 16.492,14.311 27.019,17.629 M 27.019,17.629 32.478,12.498 M 8.229,14.281 16.115,14.136 M 32.262,23.645 38.020,19.280 M 27.019,17.629 27.786,21.885 M 27.786,21.885 32.262,23.645 M 25.835,26.866 27.786,21.885 M 16.492,14.311 20.343,28.671 M 20.343,28.671 25.835,26.866 M 48.897,15.347 49.180,23.659 M 38.020,19.280 43.554,25.749 M 43.554,25.749 49.180,23.659 M 87.027,0.000 102.000,17.132 M 82.696,0.000 87.939,24.152 M 87.939,24.152 102.000,19.433 M 32.262,23.645 40.543,28.270 M 40.543,28.270 43.554,25.749 M 70.535,1.086 71.807,23.250 M 71.807,23.250 85.383,26.192 M 85.383,26.192 87.939,24.152 M 67.780,26.363 71.807,23.250 M 57.750,13.358 65.267,27.417 M 65.267,27.417 67.780,26.363 M 25.835,26.866 30.501,35.186 M 49.180,23.659 59.405,30.407 M 59.405,30.407 60.406,30.442 M 60.406,30.442 65.267,27.417 M 8.229,14.281 12.639,33.387 M 12.639,33.387 20.343,28.671 M 52.199,37.912 59.405,30.407 M 60.406,30.442 61.835,35.020 M 30.501,35.186 37.362,36.014 M 37.362,36.014 40.543,28.270 M 37.362,36.014 37.812,36.827 M 37.812,36.827 52.199,37.912 M 12.088,35.183 12.639,33.387 M 23.472,40.592 30.501,35.186 M 12.088,35.183 12.275,37.382 M 12.275,37.382 23.472,40.592 M 11.738,38.239 12.275,37.382 M 37.812,36.827 38.575,44.716 M 23.472,40.592 25.996,47.116 M 25.996,47.116 38.575,44.716 M 61.835,35.020 78.279,44.995 M 67.780,26.363 78.279,44.995 M 85.383,26.192 88.009,43.029 M 38.575,44.716 40.670,48.125 M 88.009,43.029 92.229,44.464 M 25.114,51.183 25.996,47.116 M 61.835,35.020 64.206,49.547 M 64.206,49.547 66.664,50.163 M 78.279,44.995 80.133,47.373 M 80.133,47.373 88.009,43.029 M 91.347,56.549 92.229,44.464 M 11.738,38.239 18.869,53.443 M 18.869,53.443 25.114,51.183 M 25.114,51.183 28.587,54.677 M 28.587,54.677 40.670,48.125 M 66.664,50.163 78.674,49.190 M 78.674,49.190 80.133,47.373 M 28.587,54.677 29.520,57.625 M 78.674,49.190 79.349,55.022 M 89.207,61.379 91.347,56.549 M 79.349,55.022 86.486,61.459 M 86.486,61.459 89.207,61.379 M 40.670,48.125 48.437,54.595 M 48.437,54.595 52.199,37.912 M 48.437,54.595 49.820,57.323 M 49.820,57.323 64.206,49.547 M 11.056,62.834 18.869,53.443 M 8.955,62.593 11.056,62.834 M 11.056,62.834 11.932,63.469 M 11.932,63.469 29.520,57.625 M 49.300,60.646 49.820,57.323 M 0.000,48.562 11.738,38.239 M 0.000,59.633 8.955,62.593 M 71.901,69.774 79.349,55.022 M 66.664,50.163 69.753,70.114 M 69.753,70.114 71.901,69.774 M 49.300,60.646 68.972,70.455 M 68.972,70.455 69.753,70.114 M 81.900,73.570 86.486,61.459 M 71.901,69.774 81.539,73.781 M 81.539,73.781 81.900,73.570 M 7.240,80.207 8.955,62.593 M 81.900,73.570 102.000,70.759 M 89.207,61.379 102.000,69.543 M 7.240,80.207 11.852,81.291 M 11.852,81.291 14.172,80.828 M 65.982,77.790 68.972,70.455 M 65.717,79.894 65.982,77.790 M 11.932,63.469 25.778,76.142 M 14.172,80.828 25.582,76.432 M 25.582,76.432 25.778,76.142 M 29.520,57.625 38.903,72.919 M 38.903,72.919 49.300,60.646 M 25.778,76.142 38.862,73.023 M 38.862,73.023 38.903,72.919 M 38.862,73.023 39.064,73.347 M 39.064,73.347 65.982,77.790 M 25.051,78.939 25.582,76.432 M 63.319,85.506 65.717,79.894 M 63.319,85.506 64.216,85.993 M 61.891,86.607 63.319,85.506 M 64.216,85.993 78.016,89.964 M 65.717,79.894 83.482,87.226 M 81.539,73.781 83.482,87.226 M 78.016,89.964 83.519,87.323 M 83.482,87.226 83.519,87.323 M 73.183,95.740 78.016,89.964 M 12.731,93.791 14.172,80.828 M 64.216,85.993 72.880,95.838 M 72.880,95.838 73.183,95.740 M 8.056,93.370 11.852,81.291 M 8.056,93.370 12.731,93.791 M 12.731,93.791 15.859,94.528 M 15.859,94.528 25.051,78.939 M 39.064,73.347 45.800,87.986 M 45.800,87.986 61.891,86.607 M 61.891,86.607 64.777,102.000 M 65.138,102.000 72.880,95.838 M 91.347,56.549 102.000,61.507 M 15.859,94.528 21.379,102.000 M 25.051,78.939 29.414,102.000 M 43.266,102.000 45.800,87.986 M 0.000,82.751 7.240,80.207 M 0.000,94.889 8.056,93.370 M 92.229,44.464 102.000,45.266 M 0.000,9.393 8.229,14.281 M 0.000,30.174 12.088,35.183 M 73.183,95.740 79.174,102.000 M 83.519,87.323 102.000,99.436 M 102.000,30.952 102.000,30.952 " />
    </pattern>
  </defs>
  <sodipodi:namedview
     id="base"
     pagecolor="#ffffff"
     bordercolor="#666666"
     borderopacity="1.0"
     inkscape:pageopacity="0.0"
     inkscape:pageshadow="2"
     inkscape:zoom="1"
     inkscape:cx="388.51825"
     inkscape:cy="560"
     inkscape:document-units="mm"
     inkscape:current-layer="layer1"
     showgrid="false"
     showborder="false"
     inkscape:window-width="1920"
     inkscape:window-height="1001"
     inkscape:window-x="-9"
     inkscape:window-y="-9"
     inkscape:window-maximized="1" />
  <metadata
     id="metadata5">
    <rdf:RDF>
      <cc:Work
         rdf:about="">
        <dc:format>image/svg+xml</dc:format>
        <dc:type
           rdf:resource="http://purl.org/dc/dcmitype/StillImage" />
        <dc:title></dc:title>
      </cc:Work>
    </rdf:RDF>
  </metadata>
  <g
     inkscape:label="Layer 1"
     inkscape:groupmode="layer"
     id="layer1">
    <path
       style="fill:none;fill-opacity:1;fill-rule:nonzero;stroke:#000000;stroke-width:7.55905533;stroke-miterlimit:4;stroke-dasharray:none;stroke-opacity:1"
       d="M 415.01562 565.74609 L 422.93359 578.63086 L 452.28906 603.08398 L 466.50781 540.0293 L 412.13281 535.92969 L 415.01562 565.74609 z "
       id="path1664"
       transform="scale(0.26458333)" />
    <path
       style="fill:none;fill-opacity:1;fill-rule:nonzero;stroke:#000000;stroke-width:7.55905533;stroke-miterlimit:4;stroke-dasharray:none;stroke-opacity:1"
       d="M 377.26562 603.39258 L 422.93359 578.63086 L 415.01562 565.74609 L 367.47266 574.81641 L 364.13867 590.1875 L 377.26562 603.39258 z "
       id="path1662"
       transform="scale(0.26458333)" />
    <path
       style="fill:none;fill-opacity:1;fill-rule:nonzero;stroke:#000000;stroke-width:7.55905533;stroke-miterlimit:4;stroke-dasharray:none;stroke-opacity:1"
       d="M 455.55078 625.95312 L 457.51562 613.39453 L 452.28906 603.08398 L 422.93359 578.63086 L 377.26562 603.39258 L 380.79297 614.53516 L 416.25586 672.33984 L 455.55078 625.95312 z "
       id="path1660"
       transform="scale(0.26458333)" />
    <path
       style="fill:none;fill-opacity:1;fill-rule:nonzero;stroke:#000000;stroke-width:7.55905533;stroke-miterlimit:4;stroke-dasharray:none;stroke-opacity:1"
       d="M 532.85352 661.73828 L 521.17969 586.33203 L 511.88867 584.00391 L 457.51562 613.39453 L 455.55078 625.95312 L 529.90234 663.02734 L 532.85352 661.73828 z "
       id="path1658"
       transform="scale(0.26458333)" />
    <path
       style="fill:none;fill-opacity:1;fill-rule:nonzero;stroke:#000000;stroke-width:7.55905533;stroke-miterlimit:4;stroke-dasharray:none;stroke-opacity:1"
       d="M 566.57031 582.6543 L 521.17969 586.33203 L 532.85352 661.73828 L 540.97266 660.45312 L 569.12305 604.69727 L 566.57031 582.6543 z "
       id="path1656"
       transform="scale(0.26458333)" />
    <path
       style="fill:none;fill-opacity:1;fill-rule:nonzero;stroke:#000000;stroke-width:7.55905533;stroke-miterlimit:4;stroke-dasharray:none;stroke-opacity:1"
       d="M 565.07812 566.80078 L 502.92773 529.09961 L 511.88867 584.00391 L 521.17969 586.33203 L 566.57031 582.6543 L 572.08594 575.78711 L 565.07812 566.80078 z "
       id="path1654"
       transform="scale(0.26458333)" />
    <path
       style="fill:none;fill-opacity:1;fill-rule:nonzero;stroke:#000000;stroke-width:7.55905533;stroke-miterlimit:4;stroke-dasharray:none;stroke-opacity:1"
       d="M 497.52734 511.79688 L 502.92773 529.09961 L 565.07812 566.80078 L 525.39648 496.37891 L 515.89844 500.36328 L 497.52734 511.79688 z "
       id="path1652"
       transform="scale(0.26458333)" />
    <path
       style="fill:none;fill-opacity:1;fill-rule:nonzero;stroke:#000000;stroke-width:7.55905533;stroke-miterlimit:4;stroke-dasharray:none;stroke-opacity:1"
       d="M 493.74414 511.66406 L 466.50781 540.0293 L 452.28906 603.08398 L 457.51562 613.39453 L 511.88867 584.00391 L 502.92773 529.09961 L 497.52734 511.79688 L 493.74414 511.66406 z "
       id="path1650"
       transform="scale(0.26458333)" />
    <path
       style="fill:none;fill-opacity:1;fill-rule:nonzero;stroke:#000000;stroke-width:7.55905533;stroke-miterlimit:4;stroke-dasharray:none;stroke-opacity:1"
       d="M 410.43164 532.85547 L 412.13281 535.92969 L 466.50781 540.0293 L 493.74414 511.66406 L 455.09766 486.16016 L 433.83398 494.05859 L 422.45312 503.58789 L 410.43164 532.85547 z "
       id="path1648"
       transform="scale(0.26458333)" />
    <path
       style="fill:none;fill-opacity:1;fill-rule:nonzero;stroke:#000000;stroke-width:7.55905533;stroke-miterlimit:4;stroke-dasharray:none;stroke-opacity:1"
       d="M 384.5 529.72656 L 357.93359 550.1582 L 367.47266 574.81641 L 415.01562 565.74609 L 412.13281 535.92969 L 410.43164 532.85547 L 384.5 529.72656 z "
       id="path1646"
       transform="scale(0.26458333)" />
    <path
       style="fill:none;fill-opacity:1;fill-rule:nonzero;stroke:#000000;stroke-width:7.55905533;stroke-miterlimit:4;stroke-dasharray:none;stroke-opacity:1"
       d="M 315.61328 538.02734 L 357.93359 550.1582 L 384.5 529.72656 L 366.86523 498.28125 L 346.10742 505.10352 L 316.99023 522.92773 L 314.9082 529.71484 L 315.61328 538.02734 z "
       id="path1644"
       transform="scale(0.26458333)" />
    <path
       style="fill:none;fill-opacity:1;fill-rule:nonzero;stroke:#000000;stroke-width:7.55905533;stroke-miterlimit:4;stroke-dasharray:none;stroke-opacity:1"
       d="M 340.53711 598.72852 L 364.13867 590.1875 L 367.47266 574.81641 L 357.93359 550.1582 L 315.61328 538.02734 L 313.58398 541.26562 L 340.53711 598.72852 z "
       id="path1642"
       transform="scale(0.26458333)" />
    <path
       style="fill:none;fill-opacity:1;fill-rule:nonzero;stroke:#000000;stroke-width:7.55905533;stroke-miterlimit:4;stroke-dasharray:none;stroke-opacity:1"
       d="M 311.00781 634.22266 L 314.31836 636.62305 L 380.79297 614.53516 L 377.26562 603.39258 L 364.13867 590.1875 L 340.53711 598.72852 L 311.00781 634.22266 z "
       id="path1640"
       transform="scale(0.26458333)" />
    <path
       style="fill:none;fill-opacity:1;fill-rule:nonzero;stroke:#000000;stroke-width:7.55905533;stroke-miterlimit:4;stroke-dasharray:none;stroke-opacity:1"
       d="M 317.33789 751.22656 L 322.7832 702.23242 L 314.01562 703.98242 L 299.66797 749.63477 L 317.33789 751.22656 z "
       id="path1638"
       transform="scale(0.26458333)" />
    <path
       style="fill:none;fill-opacity:1;fill-rule:nonzero;stroke:#000000;stroke-width:7.55905533;stroke-miterlimit:4;stroke-dasharray:none;stroke-opacity:1"
       d="M 365.9082 685.61719 L 322.7832 702.23242 L 317.33789 751.22656 L 329.16016 754.01172 L 363.90234 695.0918 L 365.9082 685.61719 z "
       id="path1636"
       transform="scale(0.26458333)" />
    <path
       style="fill:none;fill-opacity:1;fill-rule:nonzero;stroke:#000000;stroke-width:7.55905533;stroke-miterlimit:4;stroke-dasharray:none;stroke-opacity:1"
       d="M 366.64844 684.52148 L 314.31836 636.62305 L 311.00781 634.22266 L 303.06641 633.3125 L 296.58398 699.88477 L 314.01562 703.98242 L 322.7832 702.23242 L 365.9082 685.61719 L 366.64844 684.52148 z "
       id="path1634"
       transform="scale(0.26458333)" />
    <path
       style="fill:none;fill-opacity:1;fill-rule:nonzero;stroke:#000000;stroke-width:7.55905533;stroke-miterlimit:4;stroke-dasharray:none;stroke-opacity:1"
       d="M 416.09961 672.73242 L 416.25586 672.33984 L 380.79297 614.53516 L 314.31836 636.62305 L 366.64844 684.52148 L 416.09961 672.73242 z "
       id="path1632"
       transform="scale(0.26458333)" />
    <path
       style="fill:none;fill-opacity:1;fill-rule:nonzero;stroke:#000000;stroke-width:7.55905533;stroke-miterlimit:4;stroke-dasharray:none;stroke-opacity:1"
       d="M 416.86328 673.95703 L 518.60156 690.75 L 529.90234 663.02734 L 455.55078 625.95312 L 416.25586 672.33984 L 416.09961 672.73242 L 416.86328 673.95703 z "
       id="path1630"
       transform="scale(0.26458333)" />
    <path
       style="fill:none;fill-opacity:1;fill-rule:nonzero;stroke:#000000;stroke-width:7.55905533;stroke-miterlimit:4;stroke-dasharray:none;stroke-opacity:1"
       d="M 508.53711 719.91211 L 517.59961 698.70117 L 518.60156 690.75 L 416.86328 673.95703 L 442.32227 729.28516 L 503.13867 724.07422 L 508.53711 719.91211 z "
       id="path1628"
       transform="scale(0.26458333)" />
    <path
       style="fill:none;fill-opacity:1;fill-rule:nonzero;stroke:#000000;stroke-width:7.55905533;stroke-miterlimit:4;stroke-dasharray:none;stroke-opacity:1"
       d="M 564.08398 736.76172 L 511.92578 721.75391 L 544.67188 758.96289 L 545.81836 758.5918 L 564.08398 736.76172 z "
       id="path1626"
       transform="scale(0.26458333)" />
    <path
       style="fill:none;fill-opacity:1;fill-rule:nonzero;stroke:#000000;stroke-width:7.55905533;stroke-miterlimit:4;stroke-dasharray:none;stroke-opacity:1"
       d="M 584.74219 726.41406 L 517.59961 698.70117 L 508.53711 719.91211 L 511.92578 721.75391 L 564.08398 736.76172 L 584.88281 726.7793 L 584.74219 726.41406 z "
       id="path1624"
       transform="scale(0.26458333)" />
    <path
       style="fill:none;fill-opacity:1;fill-rule:nonzero;stroke:#000000;stroke-width:7.55905533;stroke-miterlimit:4;stroke-dasharray:none;stroke-opacity:1"
       d="M 577.39844 675.59766 L 540.97266 660.45312 L 532.85352 661.73828 L 529.90234 663.02734 L 518.60156 690.75 L 517.59961 698.70117 L 584.74219 726.41406 L 577.39844 675.59766 z "
       id="path1622"
       transform="scale(0.26458333)" />
    <path
       style="fill:none;fill-opacity:1;fill-rule:nonzero;stroke:#000000;stroke-width:7.55905533;stroke-miterlimit:4;stroke-dasharray:none;stroke-opacity:1"
       d="M 596.09766 629.02539 L 569.12305 604.69727 L 540.97266 660.45312 L 577.39844 675.59766 L 578.76367 674.80078 L 596.09766 629.02539 z "
       id="path1620"
       transform="scale(0.26458333)" />
    <path
       style="fill:none;fill-opacity:1;fill-rule:nonzero;stroke:#000000;stroke-width:7.55905533;stroke-miterlimit:4;stroke-dasharray:none;stroke-opacity:1"
       d="M 601.85352 559.36914 L 572.08594 575.78711 L 566.57031 582.6543 L 569.12305 604.69727 L 596.09766 629.02539 L 606.38086 628.72461 L 614.46875 610.46875 L 617.80273 564.79297 L 601.85352 559.36914 z "
       id="path1618"
       transform="scale(0.26458333)" />
    <path
       style="fill:none;fill-opacity:1;fill-rule:nonzero;stroke:#000000;stroke-width:7.55905533;stroke-miterlimit:4;stroke-dasharray:none;stroke-opacity:1"
       d="M 540.61719 484.61328 L 525.39648 496.37891 L 565.07812 566.80078 L 572.08594 575.78711 L 601.85352 559.36914 L 591.92773 495.73438 L 540.61719 484.61328 z "
       id="path1616"
       transform="scale(0.26458333)" />
    <path
       style="fill:none;fill-opacity:1;fill-rule:nonzero;stroke:#000000;stroke-width:7.55905533;stroke-miterlimit:4;stroke-dasharray:none;stroke-opacity:1"
       d="M 487.48828 447.22656 L 515.89844 500.36328 L 525.39648 496.37891 L 540.61719 484.61328 L 535.80859 400.84375 L 487.48828 447.22656 z "
       id="path1614"
       transform="scale(0.26458333)" />
    <path
       style="fill:none;fill-opacity:1;fill-rule:nonzero;stroke:#000000;stroke-width:7.55905533;stroke-miterlimit:4;stroke-dasharray:none;stroke-opacity:1"
       d="M 454.02734 454.74414 L 455.09766 486.16016 L 493.74414 511.66406 L 497.52734 511.79688 L 515.89844 500.36328 L 487.48828 447.22656 L 457.3457 453.25195 L 454.02734 454.74414 z "
       id="path1612"
       transform="scale(0.26458333)" />
    <path
       style="fill:none;fill-opacity:1;fill-rule:nonzero;stroke:#000000;stroke-width:7.55905533;stroke-miterlimit:4;stroke-dasharray:none;stroke-opacity:1"
       d="M 412.91797 469.60938 L 433.83398 494.05859 L 455.09766 486.16016 L 454.02734 454.74414 L 436.8418 432.85352 L 399.05078 444.32812 L 412.91797 469.60938 z "
       id="path1610"
       transform="scale(0.26458333)" />
    <path
       style="fill:none;fill-opacity:1;fill-rule:nonzero;stroke:#000000;stroke-width:7.55905533;stroke-miterlimit:4;stroke-dasharray:none;stroke-opacity:1"
       d="M 391.15625 486.10742 L 422.45312 503.58789 L 433.83398 494.05859 L 412.91797 469.60938 L 391.15625 486.10742 z "
       id="path1608"
       transform="scale(0.26458333)" />
    <path
       style="fill:none;fill-opacity:1;fill-rule:nonzero;stroke:#000000;stroke-width:7.55905533;stroke-miterlimit:4;stroke-dasharray:none;stroke-opacity:1"
       d="M 374.23828 479.45508 L 366.86523 498.28125 L 384.5 529.72656 L 410.43164 532.85547 L 422.45312 503.58789 L 391.15625 486.10742 L 374.23828 479.45508 z "
       id="path1606"
       transform="scale(0.26458333)" />
    <path
       style="fill:none;fill-opacity:1;fill-rule:nonzero;stroke:#000000;stroke-width:7.55905533;stroke-miterlimit:4;stroke-dasharray:none;stroke-opacity:1"
       d="M 331.55273 450.82812 L 346.10742 505.10352 L 366.86523 498.28125 L 374.23828 479.45508 L 371.33984 463.36914 L 331.55273 450.82812 z "
       id="path1604"
       transform="scale(0.26458333)" />
    <path
       style="fill:none;fill-opacity:1;fill-rule:nonzero;stroke:#000000;stroke-width:7.55905533;stroke-miterlimit:4;stroke-dasharray:none;stroke-opacity:1"
       d="M 300.32227 450.71484 L 316.99023 522.92773 L 346.10742 505.10352 L 331.55273 450.82812 L 330.12695 450.16797 L 300.32227 450.71484 z "
       id="path1602"
       transform="scale(0.26458333)" />
    <path
       style="fill:none;fill-opacity:1;fill-rule:nonzero;stroke:#000000;stroke-width:7.55905533;stroke-miterlimit:4;stroke-dasharray:none;stroke-opacity:1"
       d="M 273 512.34961 L 314.9082 529.71484 L 316.99023 522.92773 L 300.32227 450.71484 L 273 434.48633 L 273 512.34961 z "
       id="path1600"
       transform="scale(0.26458333)" />
    <path
       style="fill:none;fill-opacity:1;fill-rule:nonzero;stroke:#000000;stroke-width:7.55905533;stroke-miterlimit:4;stroke-dasharray:none;stroke-opacity:1"
       d="M 273 576.95703 L 313.58398 541.26562 L 315.61328 538.02734 L 314.9082 529.71484 L 273 512.34961 L 273 576.95703 z "
       id="path1598"
       transform="scale(0.26458333)" />
    <path
       style="fill:none;fill-opacity:1;fill-rule:nonzero;stroke:#000000;stroke-width:7.55905533;stroke-miterlimit:4;stroke-dasharray:none;stroke-opacity:1"
       d="M 273 623.375 L 303.06641 633.3125 L 311.00781 634.22266 L 340.53711 598.72852 L 313.58398 541.26562 L 273 576.95703 L 273 623.375 z "
       id="path1596"
       transform="scale(0.26458333)" />
    <path
       style="fill:none;fill-opacity:1;fill-rule:nonzero;stroke:#000000;stroke-width:7.55905533;stroke-miterlimit:4;stroke-dasharray:none;stroke-opacity:1"
       d="M 273 708.17188 L 296.58398 699.88477 L 303.06641 633.3125 L 273 623.375 L 273 708.17188 z "
       id="path1594"
       transform="scale(0.26458333)" />
    <path
       style="fill:none;fill-opacity:1;fill-rule:nonzero;stroke:#000000;stroke-width:7.55905533;stroke-miterlimit:4;stroke-dasharray:none;stroke-opacity:1"
       d="M 273 754.66211 L 299.66797 749.63477 L 314.01562 703.98242 L 296.58398 699.88477 L 273 708.17188 L 273 754.66211 z "
       id="path1592"
       transform="scale(0.26458333)" />
    <path
       style="fill:none;fill-opacity:1;fill-rule:nonzero;stroke:#000000;stroke-width:7.55905533;stroke-miterlimit:4;stroke-dasharray:none;stroke-opacity:1"
       d="M 347.23047 778.47266 L 329.16016 754.01172 L 317.33789 751.22656 L 299.66797 749.63477 L 273 754.66211 L 273 778.47266 L 347.23047 778.47266 z "
       id="path1590"
       transform="scale(0.26458333)" />
    <path
       style="fill:none;fill-opacity:1;fill-rule:nonzero;stroke:#000000;stroke-width:7.55905533;stroke-miterlimit:4;stroke-dasharray:none;stroke-opacity:1"
       d="M 379.67578 778.47266 L 363.90234 695.0918 L 329.16016 754.01172 L 347.23047 778.47266 L 379.67578 778.47266 z "
       id="path1588"
       transform="scale(0.26458333)" />
    <path
       style="fill:none;fill-opacity:1;fill-rule:nonzero;stroke:#000000;stroke-width:7.55905533;stroke-miterlimit:4;stroke-dasharray:none;stroke-opacity:1"
       d="M 433.42969 778.47266 L 442.32227 729.28516 L 416.86328 673.95703 L 416.09961 672.73242 L 366.64844 684.52148 L 365.9082 685.61719 L 363.90234 695.0918 L 379.67578 778.47266 L 433.42969 778.47266 z "
       id="path1586"
       transform="scale(0.26458333)" />
    <path
       style="fill:none;fill-opacity:1;fill-rule:nonzero;stroke:#000000;stroke-width:7.55905533;stroke-miterlimit:4;stroke-dasharray:none;stroke-opacity:1"
       d="M 513.33789 778.47266 L 503.13867 724.07422 L 442.32227 729.28516 L 433.42969 778.47266 L 513.33789 778.47266 z "
       id="path1584"
       transform="scale(0.26458333)" />
    <path
       style="fill:none;fill-opacity:1;fill-rule:nonzero;stroke:#000000;stroke-width:7.55905533;stroke-miterlimit:4;stroke-dasharray:none;stroke-opacity:1"
       d="M 520.16016 778.47266 L 544.67188 758.96289 L 511.92578 721.75391 L 508.53711 719.91211 L 503.13867 724.07422 L 513.33789 778.47266 L 520.16016 778.47266 z "
       id="path1582"
       transform="scale(0.26458333)" />
    <path
       style="fill:none;fill-opacity:1;fill-rule:nonzero;stroke:#000000;stroke-width:7.55905533;stroke-miterlimit:4;stroke-dasharray:none;stroke-opacity:1"
       d="M 564.84375 778.47266 L 545.81836 758.5918 L 544.67188 758.96289 L 520.16016 778.47266 L 564.84375 778.47266 z "
       id="path1580"
       transform="scale(0.26458333)" />
    <path
       style="fill:none;fill-opacity:1;fill-rule:nonzero;stroke:#000000;stroke-width:7.55905533;stroke-miterlimit:4;stroke-dasharray:none;stroke-opacity:1"
       d="M 650.95312 770.08398 L 584.88281 726.7793 L 564.08398 736.76172 L 545.81836 758.5918 L 564.84375 778.47266 L 650.95312 778.47266 L 650.95312 770.08398 z "
       id="path1578"
       transform="scale(0.26458333)" />
    <path
       style="fill:none;fill-opacity:1;fill-rule:nonzero;stroke:#000000;stroke-width:7.55905533;stroke-miterlimit:4;stroke-dasharray:none;stroke-opacity:1"
       d="M 650.95312 664.70508 L 578.76367 674.80078 L 577.39844 675.59766 L 584.74219 726.41406 L 584.88281 726.7793 L 650.95312 770.08398 L 650.95312 664.70508 z "
       id="path1576"
       transform="scale(0.26458333)" />
    <path
       style="fill:none;fill-opacity:1;fill-rule:nonzero;stroke:#000000;stroke-width:7.55905533;stroke-miterlimit:4;stroke-dasharray:none;stroke-opacity:1"
       d="M 650.95312 657.16797 L 606.38086 628.72461 L 596.09766 629.02539 L 578.76367 674.80078 L 650.95312 664.70508 L 650.95312 657.16797 z "
       id="path1574"
       transform="scale(0.26458333)" />
    <path
       style="fill:none;fill-opacity:1;fill-rule:nonzero;stroke:#000000;stroke-width:7.55905533;stroke-miterlimit:4;stroke-dasharray:none;stroke-opacity:1"
       d="M 650.95312 627.44727 L 614.46875 610.46875 L 606.38086 628.72461 L 650.95312 657.16797 L 650.95312 627.44727 z "
       id="path1572"
       transform="scale(0.26458333)" />
    <path
       style="fill:none;fill-opacity:1;fill-rule:nonzero;stroke:#000000;stroke-width:7.55905533;stroke-miterlimit:4;stroke-dasharray:none;stroke-opacity:1"
       d="M 650.95312 567.51367 L 617.80273 564.79297 L 614.46875 610.46875 L 650.95312 627.44727 L 650.95312 567.51367 z "
       id="path1570"
       transform="scale(0.26458333)" />
    <path
       style="fill:none;fill-opacity:1;fill-rule:nonzero;stroke:#000000;stroke-width:7.55905533;stroke-miterlimit:4;stroke-dasharray:none;stroke-opacity:1"
       d="M 650.95312 471.45508 L 601.58789 488.02344 L 591.92773 495.73438 L 601.85352 559.36914 L 617.80273 564.79297 L 650.95312 567.51367 L 650.95312 471.45508 z "
       id="path1568"
       transform="scale(0.26458333)" />
    <path
       style="fill:none;fill-opacity:1;fill-rule:nonzero;stroke:#000000;stroke-width:7.55905533;stroke-miterlimit:4;stroke-dasharray:none;stroke-opacity:1"
       d="M 601.44336 400.51953 L 650.95312 457.16602 L 650.95312 400.51953 L 601.44336 400.51953 z "
       id="path1566"
       transform="scale(0.26458333)" />
    <path
       style="fill:none;fill-opacity:1;fill-rule:nonzero;stroke:#000000;stroke-width:7.55905533;stroke-miterlimit:4;stroke-dasharray:none;stroke-opacity:1"
       d="M 582.5918 400.51953 L 601.58789 488.02344 L 650.95312 471.45508 L 650.95312 457.16602 L 601.44336 400.51953 L 582.5918 400.51953 z "
       id="path1564"
       transform="scale(0.26458333)" />
    <path
       style="fill:none;fill-opacity:1;fill-rule:nonzero;stroke:#000000;stroke-width:7.55905533;stroke-miterlimit:4;stroke-dasharray:none;stroke-opacity:1"
       d="M 535.85938 400.51953 L 535.80859 400.84375 L 540.61719 484.61328 L 591.92773 495.73438 L 601.58789 488.02344 L 582.5918 400.51953 L 535.85938 400.51953 z "
       id="path1562"
       transform="scale(0.26458333)" />
    <path
       style="fill:none;fill-opacity:1;fill-rule:nonzero;stroke:#000000;stroke-width:7.55905533;stroke-miterlimit:4;stroke-dasharray:none;stroke-opacity:1"
       d="M 499.19727 400.51953 L 457.3457 453.25195 L 487.48828 447.22656 L 535.80859 400.84375 L 535.85938 400.51953 L 499.19727 400.51953 z "
       id="path1560"
       transform="scale(0.26458333)" />
    <path
       style="fill:none;fill-opacity:1;fill-rule:nonzero;stroke:#000000;stroke-width:7.55905533;stroke-miterlimit:4;stroke-dasharray:none;stroke-opacity:1"
       d="M 442.3457 400.51953 L 436.8418 432.85352 L 454.02734 454.74414 L 457.3457 453.25195 L 499.19727 400.51953 L 442.3457 400.51953 z "
       id="path1558"
       transform="scale(0.26458333)" />
    <path
       style="fill:none;fill-opacity:1;fill-rule:nonzero;stroke:#000000;stroke-width:7.55905533;stroke-miterlimit:4;stroke-dasharray:none;stroke-opacity:1"
       d="M 392.30469 443.81445 L 399.05078 444.32812 L 436.8418 432.85352 L 442.3457 400.51953 L 390.59375 400.51953 L 392.30469 443.81445 z "
       id="path1556"
       transform="scale(0.26458333)" />
    <path
       style="fill:none;fill-opacity:1;fill-rule:nonzero;stroke:#000000;stroke-width:7.55905533;stroke-miterlimit:4;stroke-dasharray:none;stroke-opacity:1"
       d="M 391.97266 443.97656 L 371.33984 463.36914 L 374.23828 479.45508 L 391.15625 486.10742 L 412.91797 469.60938 L 399.05078 444.32812 L 392.30469 443.81445 L 391.97266 443.97656 z "
       id="path1554"
       transform="scale(0.26458333)" />
    <path
       style="fill:none;fill-opacity:1;fill-rule:nonzero;stroke:#000000;stroke-width:7.55905533;stroke-miterlimit:4;stroke-dasharray:none;stroke-opacity:1"
       d="M 355.21289 412.23242 L 330.12695 450.16797 L 331.55273 450.82812 L 371.33984 463.36914 L 391.97266 443.97656 L 355.21289 412.23242 z "
       id="path1552"
       transform="scale(0.26458333)" />
    <path
       style="fill:none;fill-opacity:1;fill-rule:nonzero;stroke:#000000;stroke-width:7.55905533;stroke-miterlimit:4;stroke-dasharray:none;stroke-opacity:1"
       d="M 356.25586 400.51953 L 273 400.51953 L 273 434.48633 L 300.32227 450.71484 L 330.12695 450.16797 L 355.21289 412.23242 L 356.25586 400.51953 z "
       id="path1550"
       transform="scale(0.26458333)" />
    <path
       style="fill:none;fill-opacity:1;fill-rule:nonzero;stroke:#000000;stroke-width:7.55905533;stroke-miterlimit:4;stroke-dasharray:none;stroke-opacity:1"
       d="M 356.25586 400.51953 L 355.21289 412.23242 L 391.97266 443.97656 L 392.30469 443.81445 L 390.59375 400.51953 L 356.25586 400.51953 z "
       id="rect815"
       transform="scale(0.26458333)" />
  </g>
</svg>
