<?xml version="1.0" encoding="UTF-8" standalone="no"?>
<!-- Created with Inkscape (http://www.inkscape.org/) -->

<svg
   xmlns:dc="http://purl.org/dc/elements/1.1/"
   xmlns:cc="http://creativecommons.org/ns#"
   xmlns:rdf="http://www.w3.org/1999/02/22-rdf-syntax-ns#"
   xmlns:svg="http://www.w3.org/2000/svg"
   xmlns="http://www.w3.org/2000/svg"
   xmlns:sodipodi="http://sodipodi.sourceforge.net/DTD/sodipodi-0.dtd"
   xmlns:inkscape="http://www.inkscape.org/namespaces/inkscape"
   width="210mm"
   height="297mm"
   viewBox="0 0 210 297"
   version="1.1"
   id="svg8"
   inkscape:version="0.92.4 (5da689c313, 2019-01-14)"
   sodipodi:docname="mosaik6.svg">
  <defs
     id="defs2">
    <pattern
       patternUnits="userSpaceOnUse"
       patternTransform="translate(71.2312546444,104.970833998)"
       height="101.999999727"
       width="101.999999727"
       id="Voronoi4251">
      <path
         id="path819"
         style="stroke:#000000;stroke-width:0.264583333328"
         d="M 22.752,4.099 23.117,0.000 M 57.750,13.358 70.535,1.086 M 70.535,1.086 70.708,0.000 M 44.350,9.555 45.976,0.000 M 34.351,12.591 44.350,9.555 M 32.074,0.000 32.566,12.455 M 32.566,12.455 34.351,12.591 M 22.752,4.099 32.478,12.498 M 32.478,12.498 32.566,12.455 M 34.351,12.591 38.020,19.280 M 49.775,14.952 61.642,0.000 M 49.775,14.952 57.750,13.358 M 16.115,14.136 22.752,4.099 M 16.115,14.136 16.492,14.311 M 44.350,9.555 48.897,15.347 M 48.897,15.347 49.775,14.952 M 16.492,14.311 27.019,17.629 M 27.019,17.629 32.478,12.498 M 8.229,14.281 16.115,14.136 M 32.262,23.645 38.020,19.280 M 27.019,17.629 27.786,21.885 M 27.786,21.885 32.262,23.645 M 25.835,26.866 27.786,21.885 M 16.492,14.311 20.343,28.671 M 20.343,28.671 25.835,26.866 M 48.897,15.347 49.180,23.659 M 38.020,19.280 43.554,25.749 M 43.554,25.749 49.180,23.659 M 87.027,0.000 102.000,17.132 M 82.696,0.000 87.939,24.152 M 87.939,24.152 102.000,19.433 M 32.262,23.645 40.543,28.270 M 40.543,28.270 43.554,25.749 M 70.535,1.086 71.807,23.250 M 71.807,23.250 85.383,26.192 M 85.383,26.192 87.939,24.152 M 67.780,26.363 71.807,23.250 M 57.750,13.358 65.267,27.417 M 65.267,27.417 67.780,26.363 M 25.835,26.866 30.501,35.186 M 49.180,23.659 59.405,30.407 M 59.405,30.407 60.406,30.442 M 60.406,30.442 65.267,27.417 M 8.229,14.281 12.639,33.387 M 12.639,33.387 20.343,28.671 M 52.199,37.912 59.405,30.407 M 60.406,30.442 61.835,35.020 M 30.501,35.186 37.362,36.014 M 37.362,36.014 40.543,28.270 M 37.362,36.014 37.812,36.827 M 37.812,36.827 52.199,37.912 M 12.088,35.183 12.639,33.387 M 23.472,40.592 30.501,35.186 M 12.088,35.183 12.275,37.382 M 12.275,37.382 23.472,40.592 M 11.738,38.239 12.275,37.382 M 37.812,36.827 38.575,44.716 M 23.472,40.592 25.996,47.116 M 25.996,47.116 38.575,44.716 M 61.835,35.020 78.279,44.995 M 67.780,26.363 78.279,44.995 M 85.383,26.192 88.009,43.029 M 38.575,44.716 40.670,48.125 M 88.009,43.029 92.229,44.464 M 25.114,51.183 25.996,47.116 M 61.835,35.020 64.206,49.547 M 64.206,49.547 66.664,50.163 M 78.279,44.995 80.133,47.373 M 80.133,47.373 88.009,43.029 M 91.347,56.549 92.229,44.464 M 11.738,38.239 18.869,53.443 M 18.869,53.443 25.114,51.183 M 25.114,51.183 28.587,54.677 M 28.587,54.677 40.670,48.125 M 66.664,50.163 78.674,49.190 M 78.674,49.190 80.133,47.373 M 28.587,54.677 29.520,57.625 M 78.674,49.190 79.349,55.022 M 89.207,61.379 91.347,56.549 M 79.349,55.022 86.486,61.459 M 86.486,61.459 89.207,61.379 M 40.670,48.125 48.437,54.595 M 48.437,54.595 52.199,37.912 M 48.437,54.595 49.820,57.323 M 49.820,57.323 64.206,49.547 M 11.056,62.834 18.869,53.443 M 8.955,62.593 11.056,62.834 M 11.056,62.834 11.932,63.469 M 11.932,63.469 29.520,57.625 M 49.300,60.646 49.820,57.323 M 0.000,48.562 11.738,38.239 M 0.000,59.633 8.955,62.593 M 71.901,69.774 79.349,55.022 M 66.664,50.163 69.753,70.114 M 69.753,70.114 71.901,69.774 M 49.300,60.646 68.972,70.455 M 68.972,70.455 69.753,70.114 M 81.900,73.570 86.486,61.459 M 71.901,69.774 81.539,73.781 M 81.539,73.781 81.900,73.570 M 7.240,80.207 8.955,62.593 M 81.900,73.570 102.000,70.759 M 89.207,61.379 102.000,69.543 M 7.240,80.207 11.852,81.291 M 11.852,81.291 14.172,80.828 M 65.982,77.790 68.972,70.455 M 65.717,79.894 65.982,77.790 M 11.932,63.469 25.778,76.142 M 14.172,80.828 25.582,76.432 M 25.582,76.432 25.778,76.142 M 29.520,57.625 38.903,72.919 M 38.903,72.919 49.300,60.646 M 25.778,76.142 38.862,73.023 M 38.862,73.023 38.903,72.919 M 38.862,73.023 39.064,73.347 M 39.064,73.347 65.982,77.790 M 25.051,78.939 25.582,76.432 M 63.319,85.506 65.717,79.894 M 63.319,85.506 64.216,85.993 M 61.891,86.607 63.319,85.506 M 64.216,85.993 78.016,89.964 M 65.717,79.894 83.482,87.226 M 81.539,73.781 83.482,87.226 M 78.016,89.964 83.519,87.323 M 83.482,87.226 83.519,87.323 M 73.183,95.740 78.016,89.964 M 12.731,93.791 14.172,80.828 M 64.216,85.993 72.880,95.838 M 72.880,95.838 73.183,95.740 M 8.056,93.370 11.852,81.291 M 8.056,93.370 12.731,93.791 M 12.731,93.791 15.859,94.528 M 15.859,94.528 25.051,78.939 M 39.064,73.347 45.800,87.986 M 45.800,87.986 61.891,86.607 M 61.891,86.607 64.777,102.000 M 65.138,102.000 72.880,95.838 M 91.347,56.549 102.000,61.507 M 15.859,94.528 21.379,102.000 M 25.051,78.939 29.414,102.000 M 43.266,102.000 45.800,87.986 M 0.000,82.751 7.240,80.207 M 0.000,94.889 8.056,93.370 M 92.229,44.464 102.000,45.266 M 0.000,9.393 8.229,14.281 M 0.000,30.174 12.088,35.183 M 73.183,95.740 79.174,102.000 M 83.519,87.323 102.000,99.436 M 102.000,30.952 102.000,30.952 " />
    </pattern>
  </defs>
  <sodipodi:namedview
     id="base"
     pagecolor="#ffffff"
     bordercolor="#666666"
     borderopacity="1.0"
     inkscape:pageopacity="0.0"
     inkscape:pageshadow="2"
     inkscape:zoom="1"
     inkscape:cx="224.01825"
     inkscape:cy="600"
     inkscape:document-units="mm"
     inkscape:current-layer="layer1"
     showgrid="false"
     showborder="false"
     inkscape:window-width="1920"
     inkscape:window-height="1001"
     inkscape:window-x="-9"
     inkscape:window-y="-9"
     inkscape:window-maximized="1" />
  <metadata
     id="metadata5">
    <rdf:RDF>
      <cc:Work
         rdf:about="">
        <dc:format>image/svg+xml</dc:format>
        <dc:type
           rdf:resource="http://purl.org/dc/dcmitype/StillImage" />
        <dc:title></dc:title>
      </cc:Work>
    </rdf:RDF>
  </metadata>
  <g
     inkscape:label="Layer 1"
     inkscape:groupmode="layer"
     id="layer1">
    <path
       style="fill:#ffc2ff;fill-opacity:1;fill-rule:nonzero;stroke:#000000;stroke-width:2;stroke-miterlimit:4;stroke-dasharray:none;stroke-opacity:1"
       d="m 76.204131,147.57032 2.094963,3.40909 7.766968,6.46989 3.762045,-16.68322 -14.386719,-1.08468 z"
       id="path1664"
       inkscape:connector-curvature="0"
       sodipodi:nodetypes="cccccc" />
    <path
       style="fill:#f5d8f5;fill-opacity:1;fill-rule:nonzero;stroke:#000000;stroke-width:2;stroke-miterlimit:4;stroke-dasharray:none;stroke-opacity:1"
       d="m 66.216111,157.53095 12.082983,-6.55154 -2.094963,-3.40909 -12.579074,2.39985 -0.882118,4.06694 z"
       id="path1662"
       inkscape:connector-curvature="0"
       sodipodi:nodetypes="cccccc" />
    <path
       style="fill:#ffa0ff;fill-opacity:1;fill-rule:nonzero;stroke:#000000;stroke-width:2;stroke-miterlimit:4;stroke-dasharray:none;stroke-opacity:1"
       d="m 86.929059,163.50009 0.519864,-3.32279 -1.382861,-2.728 -7.766968,-6.46989 -12.082983,6.55154 0.933278,2.94814 9.382889,15.29416 z"
       id="path1660"
       inkscape:connector-curvature="0"
       sodipodi:nodetypes="cccccccc" />
    <path
       style="fill:#b86eb8;fill-opacity:1;fill-rule:nonzero;stroke:#000000;stroke-width:2;stroke-miterlimit:4;stroke-dasharray:none;stroke-opacity:1"
       d="m 107.38208,172.96825 -3.08871,-19.95124 -2.45824,-0.61598 -14.386207,7.77627 -0.519864,3.32279 19.672181,9.80922 z"
       id="path1658"
       inkscape:connector-curvature="0"
       sodipodi:nodetypes="ccccccc" />
    <path
       style="fill:#cd9b9b;fill-opacity:1;fill-rule:nonzero;stroke:#000000;stroke-width:2;stroke-miterlimit:4;stroke-dasharray:none;stroke-opacity:1"
       d="m 116.30298,152.04395 -12.00961,0.97306 3.08871,19.95124 2.14818,-0.34003 7.44813,-14.75207 z"
       id="path1656"
       inkscape:connector-curvature="0"
       sodipodi:nodetypes="cccccc" />
    <path
       style="fill:#ffe1c0;fill-opacity:1;fill-rule:nonzero;stroke:#000000;stroke-width:2;stroke-miterlimit:4;stroke-dasharray:none;stroke-opacity:1"
       d="m 115.90817,147.84937 -16.44396,-9.9751 2.37092,14.52676 2.45824,0.61598 12.00961,-0.97306 1.45934,-1.81695 z"
       id="path1654"
       inkscape:connector-curvature="0"
       sodipodi:nodetypes="ccccccc" />
    <path
       style="fill:#ffffae;fill-opacity:1;fill-rule:nonzero;stroke:#000000;stroke-width:2;stroke-miterlimit:4;stroke-dasharray:none;stroke-opacity:1"
       d="m 98.035357,133.29626 1.428853,4.57801 16.44396,9.9751 -10.4991,-18.63245 -2.51303,1.0542 z"
       id="path1652"
       inkscape:connector-curvature="0"
       sodipodi:nodetypes="cccccc" />
    <path
       style="fill:#ff84ff;fill-opacity:1;fill-rule:nonzero;stroke:#000000;stroke-width:2;stroke-miterlimit:4;stroke-dasharray:none;stroke-opacity:1"
       d="m 97.034385,133.26111 -7.206278,7.50497 -3.762045,16.68322 1.382861,2.728 14.386207,-7.77627 -2.37092,-14.52676 -1.428853,-4.57801 z"
       id="path1650"
       inkscape:connector-curvature="0"
       sodipodi:nodetypes="cccccccc" />
    <path
       style="fill:#8dffff;fill-opacity:1;fill-rule:nonzero;stroke:#000000;stroke-width:2;stroke-miterlimit:4;stroke-dasharray:none;stroke-opacity:1"
       d="m 74.991287,138.86801 0.450101,0.81339 14.386719,1.08468 7.206278,-7.50497 -10.225214,-6.7479 -5.626015,2.08979 -3.011186,2.52129 z"
       id="path1648"
       inkscape:connector-curvature="0"
       sodipodi:nodetypes="cccccccc" />
    <path
       style="fill:#ceffce;fill-opacity:1;fill-rule:nonzero;stroke:#000000;stroke-width:2;stroke-miterlimit:4;stroke-dasharray:none;stroke-opacity:1"
       d="m 68.130207,138.04015 -7.029029,5.40587 2.523879,6.52415 12.579074,-2.39985 -0.762743,-7.88892 -0.450101,-0.81339 z"
       id="path1646"
       inkscape:connector-curvature="0"
       sodipodi:nodetypes="ccccccc" />
    <path
       style="fill:#caffca;fill-opacity:1;fill-rule:nonzero;stroke:#000000;stroke-width:2;stroke-miterlimit:4;stroke-dasharray:none;stroke-opacity:1"
       d="m 49.903929,140.2364 11.197249,3.20962 7.029029,-5.40587 -4.665866,-8.3199 -5.492171,1.80505 -7.703923,4.71599 -0.55087,1.79576 z"
       id="path1644"
       inkscape:connector-curvature="0"
       sodipodi:nodetypes="cccccccc" />
    <path
       style="fill:#acffac;fill-opacity:1;fill-rule:nonzero;stroke:#000000;stroke-width:2;stroke-miterlimit:4;stroke-dasharray:none;stroke-opacity:1"
       d="m 56.498359,156.29692 6.24458,-2.25981 0.882118,-4.06694 -2.523879,-6.52415 -11.197249,-3.20962 -0.536919,0.85679 z"
       id="path1642"
       inkscape:connector-curvature="0"
       sodipodi:nodetypes="ccccccc" />
    <path
       style="fill:#d3e7d3;fill-opacity:1;fill-rule:nonzero;stroke:#000000;stroke-width:2;stroke-miterlimit:4;stroke-dasharray:none;stroke-opacity:1"
       d="m 48.685399,165.68808 0.875916,0.6351 17.588074,-5.84409 -0.933278,-2.94814 -3.473172,-3.49384 -6.24458,2.25981 z"
       id="path1640"
       inkscape:connector-curvature="0"
       sodipodi:nodetypes="ccccccc" />
    <path
       style="fill:#5a5aaf;fill-opacity:1;fill-rule:nonzero;stroke:#000000;stroke-width:2;stroke-miterlimit:4;stroke-dasharray:none;stroke-opacity:1"
       d="m 50.360232,196.64536 1.440739,-12.96303 -2.319756,0.46302 -3.796149,12.07885 z"
       id="path1638"
       inkscape:connector-curvature="0"
       sodipodi:nodetypes="ccccc" />
    <path
       style="fill:#9595ca;fill-opacity:1;fill-rule:nonzero;stroke:#000000;stroke-width:2;stroke-miterlimit:4;stroke-dasharray:none;stroke-opacity:1"
       d="m 63.211127,179.28621 -11.410156,4.39612 -1.440739,12.96303 3.127976,0.73691 9.192202,-15.58923 z"
       id="path1636"
       inkscape:connector-curvature="0"
       sodipodi:nodetypes="cccccc" />
    <path
       style="fill:#ffe1ff;fill-opacity:1;fill-rule:nonzero;stroke:#000000;stroke-width:2;stroke-miterlimit:4;stroke-dasharray:none;stroke-opacity:1"
       d="m 63.406982,178.99631 -13.845667,-12.67313 -0.875916,-0.6351 -2.101162,-0.24082 -1.715143,17.61392 4.612121,1.08417 2.319756,-0.46302 11.410156,-4.39612 z"
       id="path1634"
       inkscape:connector-curvature="0"
       sodipodi:nodetypes="ccccccccc" />
    <path
       style="fill:#ff70ff;fill-opacity:1;fill-rule:nonzero;stroke:#000000;stroke-width:2;stroke-miterlimit:4;stroke-dasharray:none;stroke-opacity:1"
       d="m 76.490937,175.87712 0.04134,-0.10387 -9.382889,-15.29416 -17.588074,5.84409 13.845667,12.67313 z"
       id="path1632"
       inkscape:connector-curvature="0"
       sodipodi:nodetypes="cccccc" />
    <path
       style="fill:#993097;fill-opacity:1;fill-rule:nonzero;stroke:#000000;stroke-width:2;stroke-miterlimit:4;stroke-dasharray:none;stroke-opacity:1"
       d="m 76.692991,176.20113 26.918249,4.44314 2.99,-7.33496 -19.672181,-9.80922 -10.396781,12.27316 -0.04134,0.10387 z"
       id="path1630"
       inkscape:connector-curvature="0"
       sodipodi:nodetypes="ccccccc" />
    <path
       style="fill:#ff9192;fill-opacity:1;fill-rule:nonzero;stroke:#000000;stroke-width:2;stroke-miterlimit:4;stroke-dasharray:none;stroke-opacity:1"
       d="m 100.94836,188.36008 2.39779,-5.61206 0.26509,-2.10375 -26.918249,-4.44314 6.736025,14.6389 z"
       id="path1628"
       inkscape:connector-curvature="0"
       sodipodi:nodetypes="cccccc" />
    <path
       style="fill:#e58e8e;fill-opacity:1;fill-rule:nonzero;stroke:#000000;stroke-width:2;stroke-miterlimit:4;stroke-dasharray:none;stroke-opacity:1"
       d="m 115.64513,192.8182 -13.80019,-3.97081 8.66408,9.84487 0.30334,-0.0982 z"
       id="path1626"
       inkscape:connector-curvature="0"
       sodipodi:nodetypes="ccccc" />
    <path
       style="fill:#c17575;fill-opacity:1;fill-rule:nonzero;stroke:#000000;stroke-width:2;stroke-miterlimit:4;stroke-dasharray:none;stroke-opacity:1"
       d="m 121.11095,190.08038 -17.7648,-7.33236 -2.39779,5.61206 0.89658,0.48731 13.80019,3.97081 5.50303,-2.64118 z"
       id="path1624"
       inkscape:connector-curvature="0"
       sodipodi:nodetypes="ccccccc" />
    <path
       style="fill:#a74c4c;fill-opacity:1;fill-rule:nonzero;stroke:#000000;stroke-width:2;stroke-miterlimit:4;stroke-dasharray:none;stroke-opacity:1"
       d="m 119.16792,176.63521 -9.63766,-4.00699 -2.14818,0.34003 -0.78084,0.34106 -2.99,7.33496 -0.26509,2.10375 17.7648,7.33236 z"
       id="path1622"
       inkscape:connector-curvature="0"
       sodipodi:nodetypes="cccccccc" />
    <path
       style="fill:#be7e7e;fill-opacity:1;fill-rule:nonzero;stroke:#000000;stroke-width:2;stroke-miterlimit:4;stroke-dasharray:none;stroke-opacity:1"
       d="m 124.11542,164.31297 -7.13703,-6.43682 -7.44813,14.75207 9.63766,4.00699 0.36122,-0.21084 z"
       id="path1620"
       inkscape:connector-curvature="0"
       sodipodi:nodetypes="cccccc" />
    <path
       style="fill:#c38676;fill-opacity:1;fill-rule:nonzero;stroke:#000000;stroke-width:2;stroke-miterlimit:4;stroke-dasharray:none;stroke-opacity:1"
       d="m 125.63833,145.88308 -7.87601,4.34392 -1.45934,1.81695 0.67541,5.8322 7.13703,6.43682 2.72076,-0.0796 2.13992,-4.83019 0.88212,-12.08505 z"
       id="path1618"
       inkscape:connector-curvature="0"
       sodipodi:nodetypes="ccccccccc" />
    <path
       style="fill:#ffff97;fill-opacity:1;fill-rule:nonzero;stroke:#000000;stroke-width:2;stroke-miterlimit:4;stroke-dasharray:none;stroke-opacity:1"
       d="m 109.43621,126.10393 -4.02714,3.11299 10.4991,18.63245 1.85415,2.37763 7.87601,-4.34392 -2.6262,-16.83669 z"
       id="path1616"
       inkscape:connector-curvature="0"
       sodipodi:nodetypes="ccccccc" />
    <path
       style="fill:#f9ffc4;fill-opacity:1;fill-rule:nonzero;stroke:#000000;stroke-width:2;stroke-miterlimit:4;stroke-dasharray:none;stroke-opacity:1"
       d="m 95.379189,116.21203 7.516851,14.05909 2.51303,-1.0542 4.02714,-3.11299 -1.00769,-20.31194 z"
       id="path1614"
       inkscape:connector-curvature="0"
       sodipodi:nodetypes="cccccc" />
    <path
       style="fill:#68fffc;fill-opacity:1;fill-rule:nonzero;stroke:#000000;stroke-width:2;stroke-miterlimit:4;stroke-dasharray:none;stroke-opacity:1"
       d="m 86.525982,118.20105 0.283189,8.31216 10.225214,6.7479 1.000972,0.0351 4.860683,-3.02514 -7.516851,-14.05909 -7.975224,1.59421 z"
       id="path1612"
       inkscape:connector-curvature="0"
       sodipodi:nodetypes="cccccccc" />
    <path
       style="fill:#a4fffe;fill-opacity:1;fill-rule:nonzero;stroke:#000000;stroke-width:2;stroke-miterlimit:4;stroke-dasharray:none;stroke-opacity:1"
       d="m 75.649128,122.13415 5.534028,6.46885 5.626015,-2.08979 -0.283189,-8.31216 -4.547007,-5.79189 -9.998874,3.03599 z"
       id="path1610"
       inkscape:connector-curvature="0"
       sodipodi:nodetypes="ccccccc" />
    <path
       style="fill:#fafffc;fill-opacity:1;fill-rule:nonzero;stroke:#000000;stroke-width:2;stroke-miterlimit:4;stroke-dasharray:none;stroke-opacity:1"
       d="m 69.89134,126.49925 8.28063,4.62504 3.011186,-2.52129 -5.534028,-6.46885 z"
       id="path1608"
       inkscape:connector-curvature="0"
       sodipodi:nodetypes="ccccc" />
    <path
       style="fill:#cbffcc;fill-opacity:1;fill-rule:nonzero;stroke:#000000;stroke-width:2;stroke-miterlimit:4;stroke-dasharray:none;stroke-opacity:1"
       d="m 65.415127,124.73915 -1.950786,4.9811 4.665866,8.3199 6.86108,0.82786 3.180683,-7.74372 -8.28063,-4.62504 z"
       id="path1606"
       inkscape:connector-curvature="0"
       sodipodi:nodetypes="ccccccc" />
    <path
       style="fill:#9bfd9b;fill-opacity:1;fill-rule:nonzero;stroke:#000000;stroke-width:2;stroke-miterlimit:4;stroke-dasharray:none;stroke-opacity:1"
       d="m 54.121242,117.16494 3.850928,14.36036 5.492171,-1.80505 1.950786,-4.9811 -0.766879,-4.25607 z"
       id="path1604"
       inkscape:connector-curvature="0"
       sodipodi:nodetypes="cccccc" />
    <path
       style="fill:#8fcb8f;fill-opacity:1;fill-rule:nonzero;stroke:#000000;stroke-width:2;stroke-miterlimit:4;stroke-dasharray:none;stroke-opacity:1"
       d="m 45.858183,117.13497 4.410064,19.10632 7.703923,-4.71599 -3.850928,-14.36036 -0.377238,-0.17467 z"
       id="path1602"
       inkscape:connector-curvature="0"
       sodipodi:nodetypes="cccccc" />
    <path
       style="fill:#1a8f1a;fill-opacity:1;fill-rule:nonzero;stroke:#000000;stroke-width:2;stroke-miterlimit:4;stroke-dasharray:none;stroke-opacity:1"
       d="m 38.629166,133.4425 11.088211,4.59455 0.55087,-1.79576 -4.410064,-19.10632 -7.229017,-4.2938 z"
       id="path1600"
       inkscape:connector-curvature="0"
       sodipodi:nodetypes="cccccc" />
    <path
       style="fill:#7bbe7b;fill-opacity:1;fill-rule:nonzero;stroke:#000000;stroke-width:2;stroke-miterlimit:4;stroke-dasharray:none;stroke-opacity:1"
       d="m 38.629166,150.53655 10.737844,-9.44336 0.536919,-0.85679 -0.186552,-2.19935 -11.088211,-4.59455 z"
       id="path1598"
       inkscape:connector-curvature="0"
       sodipodi:nodetypes="cccccc" />
    <path
       style="fill:#b1ffb1;fill-opacity:1;fill-rule:nonzero;stroke:#000000;stroke-width:2;stroke-miterlimit:4;stroke-dasharray:none;stroke-opacity:1"
       d="m 38.629166,162.81797 7.955071,2.62929 2.101162,0.24082 7.81296,-9.39116 -7.131349,-15.20373 -10.737844,9.44336 z"
       id="path1596"
       inkscape:connector-curvature="0"
       sodipodi:nodetypes="ccccccc" />
    <path
       style="fill:#9393c8;fill-opacity:1;fill-rule:nonzero;stroke:#000000;stroke-width:2;stroke-miterlimit:4;stroke-dasharray:none;stroke-opacity:1"
       d="m 38.629166,185.25381 6.239928,-2.19263 1.715143,-17.61392 -7.955071,-2.62929 z"
       id="path1594"
       inkscape:connector-curvature="0"
       sodipodi:nodetypes="ccccc" />
    <path
       style="fill:#3d3da1;fill-opacity:1;fill-rule:nonzero;stroke:#000000;stroke-width:2;stroke-miterlimit:4;stroke-dasharray:none;stroke-opacity:1"
       d="m 38.629166,197.55435 7.0559,-1.33015 3.796149,-12.07885 -4.612121,-1.08417 -6.239928,2.19263 z"
       id="path1592"
       inkscape:connector-curvature="0"
       sodipodi:nodetypes="cccccc" />
    <path
       style="fill:#b2b2d9;fill-opacity:1;fill-rule:nonzero;stroke:#000000;stroke-width:2;stroke-miterlimit:4;stroke-dasharray:none;stroke-opacity:1"
       d="m 58.269311,203.85422 -4.781103,-6.47195 -3.127976,-0.73691 -4.675166,-0.42116 -7.0559,1.33015 v 6.29987 z"
       id="path1590"
       inkscape:connector-curvature="0"
       sodipodi:nodetypes="ccccccc" />
    <path
       style="fill:#6e6eb7;fill-opacity:1;fill-rule:nonzero;stroke:#000000;stroke-width:2;stroke-miterlimit:4;stroke-dasharray:none;stroke-opacity:1"
       d="m 66.853799,203.85422 -4.173389,-22.06118 -9.192202,15.58923 4.781103,6.47195 z"
       id="path1588"
       inkscape:connector-curvature="0"
       sodipodi:nodetypes="ccccc" />
    <path
       style="fill:#ff84ff;fill-opacity:1;fill-rule:nonzero;stroke:#000000;stroke-width:2;stroke-miterlimit:4;stroke-dasharray:none;stroke-opacity:1"
       d="m 81.076187,203.85422 2.352829,-13.01419 -6.736025,-14.6389 -0.202054,-0.32401 -13.083955,3.11919 -0.195855,0.2899 -0.530717,2.50683 4.173389,22.06118 z"
       id="path1586"
       inkscape:connector-curvature="0"
       sodipodi:nodetypes="ccccccccc" />
    <path
       style="fill:#ff8686;fill-opacity:1;fill-rule:nonzero;stroke:#000000;stroke-width:2;stroke-miterlimit:4;stroke-dasharray:none;stroke-opacity:1"
       d="m 102.21857,203.85422 -2.698549,-14.39292 -16.091005,1.37873 -2.352829,13.01419 z"
       id="path1584"
       inkscape:connector-curvature="0"
       sodipodi:nodetypes="ccccc" />
    <path
       style="fill:#eb9595;fill-opacity:1;fill-rule:nonzero;stroke:#000000;stroke-width:2;stroke-miterlimit:4;stroke-dasharray:none;stroke-opacity:1"
       d="m 104.02362,203.85422 6.4854,-5.16196 -8.66408,-9.84487 -0.89658,-0.48731 -1.428339,1.10122 2.698549,14.39292 z"
       id="path1582"
       inkscape:connector-curvature="0"
       sodipodi:nodetypes="ccccccc" />
    <path
       style="fill:#cf7d7d;fill-opacity:1;fill-rule:nonzero;stroke:#000000;stroke-width:2;stroke-miterlimit:4;stroke-dasharray:none;stroke-opacity:1"
       d="m 115.84616,203.85422 -5.0338,-5.26014 -0.30334,0.0982 -6.4854,5.16196 z"
       id="path1580"
       inkscape:connector-curvature="0"
       sodipodi:nodetypes="ccccc" />
    <path
       style="fill:#e43d3d;fill-opacity:1;fill-rule:nonzero;stroke:#000000;stroke-width:2;stroke-miterlimit:4;stroke-dasharray:none;stroke-opacity:1"
       d="m 138.62926,201.63472 -17.4811,-11.4577 -5.50303,2.64118 -4.83277,5.77588 5.0338,5.26014 h 22.7831 z"
       id="path1578"
       inkscape:connector-curvature="0"
       sodipodi:nodetypes="ccccccc" />
    <path
       style="fill:#b46767;fill-opacity:1;fill-rule:nonzero;stroke:#000000;stroke-width:2;stroke-miterlimit:4;stroke-dasharray:none;stroke-opacity:1"
       d="m 138.62926,173.75322 -19.10012,2.67115 -0.36122,0.21084 1.94303,13.44517 0.0372,0.0966 17.4811,11.4577 z"
       id="path1576"
       inkscape:connector-curvature="0"
       sodipodi:nodetypes="ccccccc" />
    <path
       style="fill:#881010;fill-opacity:1;fill-rule:nonzero;stroke:#000000;stroke-width:2;stroke-miterlimit:4;stroke-dasharray:none;stroke-opacity:1"
       d="m 138.62926,171.75902 -11.79308,-7.52564 -2.72076,0.0796 -4.58628,12.1114 19.10012,-2.67115 z"
       id="path1574"
       inkscape:connector-curvature="0"
       sodipodi:nodetypes="cccccc" />
    <path
       style="fill:#a95757;fill-opacity:1;fill-rule:nonzero;stroke:#000000;stroke-width:2;stroke-miterlimit:4;stroke-dasharray:none;stroke-opacity:1"
       d="m 138.62926,163.89542 -9.65316,-4.49223 -2.13992,4.83019 11.79308,7.52564 z"
       id="path1572"
       inkscape:connector-curvature="0"
       sodipodi:nodetypes="ccccc" />
    <path
       style="fill:#f7f1af;fill-opacity:1;fill-rule:nonzero;stroke:#000000;stroke-width:2;stroke-miterlimit:4;stroke-dasharray:none;stroke-opacity:1"
       d="m 138.62926,148.03799 -8.77104,-0.71985 -0.88212,12.08505 9.65316,4.49223 z"
       id="path1570"
       inkscape:connector-curvature="0"
       sodipodi:nodetypes="ccccc" />
    <path
       style="fill:#ffff14;fill-opacity:1;fill-rule:nonzero;stroke:#000000;stroke-width:2;stroke-miterlimit:4;stroke-dasharray:none;stroke-opacity:1"
       d="m 138.62926,122.62249 -13.06122,4.38371 -2.55591,2.04019 2.6262,16.83669 4.21989,1.43506 8.77104,0.71985 z"
       id="path1568"
       inkscape:connector-curvature="0"
       sodipodi:nodetypes="ccccccc" />
    <path
       style="fill:#ffff7f;fill-opacity:1;fill-rule:nonzero;stroke:#000000;stroke-width:2;stroke-miterlimit:4;stroke-dasharray:none;stroke-opacity:1"
       d="m 125.5298,103.85412 13.09946,14.98772 v -14.98772 z"
       id="path1566"
       inkscape:connector-curvature="0"
       sodipodi:nodetypes="cccc" />
    <path
       style="fill:#ffff58;fill-opacity:1;fill-rule:nonzero;stroke:#000000;stroke-width:2;stroke-miterlimit:4;stroke-dasharray:none;stroke-opacity:1"
       d="m 120.542,103.85412 5.02604,23.15208 13.06122,-4.38371 v -3.78065 L 125.5298,103.85412 Z"
       id="path1564"
       inkscape:connector-curvature="0"
       sodipodi:nodetypes="cccccc" />
    <path
       style="fill:#ffff10;fill-opacity:1;fill-rule:nonzero;stroke:#000000;stroke-width:2;stroke-miterlimit:4;stroke-dasharray:none;stroke-opacity:1"
       d="m 108.17734,103.85411 -0.0134,0.0858 1.27227,22.16402 13.57592,2.94246 2.55591,-2.04019 -5.02604,-23.15208 c 3.05832,-10e-6 1.82432,-10e-6 -12.36466,-10e-6 z"
       id="path1562"
       inkscape:connector-curvature="0"
       sodipodi:nodetypes="ccccccc" />
    <path
       style="fill:#fcff8a;fill-opacity:1;fill-rule:nonzero;stroke:#000000;stroke-width:2;stroke-miterlimit:4;stroke-dasharray:none;stroke-opacity:1"
       d="m 98.477193,103.85412 -11.073228,13.95212 7.975224,-1.59421 12.784751,-12.27212 0.0134,-0.0858 z"
       id="path1560"
       inkscape:connector-curvature="0"
       sodipodi:nodetypes="cccccc" />
    <path
       style="fill:#baff66;fill-opacity:1;fill-rule:nonzero;stroke:#000000;stroke-width:2;stroke-miterlimit:4;stroke-dasharray:none;stroke-opacity:1"
       d="m 83.435215,103.85412 -1.45624,8.55504 4.547007,5.79189 0.877983,-0.39481 11.073228,-13.95212 z"
       id="path1558"
       inkscape:connector-curvature="0"
       sodipodi:nodetypes="cccccc" />
    <path
       style="fill:#15fffc;fill-opacity:1;fill-rule:nonzero;stroke:#000000;stroke-width:2;stroke-miterlimit:4;stroke-dasharray:none;stroke-opacity:1"
       d="m 70.195198,115.30924 1.784903,0.13591 9.998874,-3.03599 1.45624,-8.55504 H 69.742512 Z"
       id="path1556"
       inkscape:connector-curvature="0"
       sodipodi:nodetypes="cccccc" />
    <path
       style="fill:#cfffcf;fill-opacity:1;fill-rule:nonzero;stroke:#000000;stroke-width:2;stroke-miterlimit:4;stroke-dasharray:none;stroke-opacity:1"
       d="m 70.107348,115.35213 -5.4591,5.13095 0.766879,4.25607 4.476213,1.7601 5.757788,-4.3651 -3.669027,-6.689 -1.784903,-0.13591 z"
       id="path1554"
       inkscape:connector-curvature="0"
       sodipodi:nodetypes="cccccccc" />
    <path
       style="fill:#72fea1;fill-opacity:1;fill-rule:nonzero;stroke:#000000;stroke-width:2;stroke-miterlimit:4;stroke-dasharray:none;stroke-opacity:1"
       d="m 60.381326,106.95316 -6.637322,10.03711 0.377238,0.17467 10.527006,3.31814 5.4591,-5.13095 z"
       id="path1552"
       inkscape:connector-curvature="0"
       sodipodi:nodetypes="cccccc" />
    <path
       style="fill:#389d38;fill-opacity:1;fill-rule:nonzero;stroke:#000000;stroke-width:2;stroke-miterlimit:4;stroke-dasharray:none;stroke-opacity:1"
       d="M 60.657278,103.85412 H 38.629166 v 8.98705 l 7.229017,4.2938 7.885821,-0.1447 6.637322,-10.03711 z"
       id="path1550"
       inkscape:connector-curvature="0"
       sodipodi:nodetypes="ccccccc" />
    <path
       style="fill:#63fff7;fill-opacity:1;fill-rule:nonzero;stroke:#000000;stroke-width:2;stroke-miterlimit:4;stroke-dasharray:none;stroke-opacity:1"
       d="m 60.657278,103.85412 -0.275952,3.09904 9.726022,8.39897 0.08785,-0.0429 -0.452686,-11.45512 z"
       id="rect815"
       inkscape:connector-curvature="0"
       sodipodi:nodetypes="cccccc" />
  </g>
</svg>
