<?xml version="1.0" encoding="UTF-8" standalone="no"?>
<!-- Created with Inkscape (http://www.inkscape.org/) -->

<svg
   xmlns:dc="http://purl.org/dc/elements/1.1/"
   xmlns:cc="http://creativecommons.org/ns#"
   xmlns:rdf="http://www.w3.org/1999/02/22-rdf-syntax-ns#"
   xmlns:svg="http://www.w3.org/2000/svg"
   xmlns="http://www.w3.org/2000/svg"
   xmlns:sodipodi="http://sodipodi.sourceforge.net/DTD/sodipodi-0.dtd"
   xmlns:inkscape="http://www.inkscape.org/namespaces/inkscape"
   width="210mm"
   height="297mm"
   viewBox="0 0 210 297"
   version="1.1"
   id="svg8"
   inkscape:version="0.92.4 (5da689c313, 2019-01-14)"
   sodipodi:docname="mosaik18.svg">
  <defs
     id="defs2">
    <pattern
       patternUnits="userSpaceOnUse"
       patternTransform="translate(71.2312546444,104.970833998)"
       height="101.999999727"
       width="101.999999727"
       id="Voronoi4251">
      <path
         id="path819"
         style="stroke:#000000;stroke-width:0.264583333328"
         d="M 22.752,4.099 23.117,0.000 M 57.750,13.358 70.535,1.086 M 70.535,1.086 70.708,0.000 M 44.350,9.555 45.976,0.000 M 34.351,12.591 44.350,9.555 M 32.074,0.000 32.566,12.455 M 32.566,12.455 34.351,12.591 M 22.752,4.099 32.478,12.498 M 32.478,12.498 32.566,12.455 M 34.351,12.591 38.020,19.280 M 49.775,14.952 61.642,0.000 M 49.775,14.952 57.750,13.358 M 16.115,14.136 22.752,4.099 M 16.115,14.136 16.492,14.311 M 44.350,9.555 48.897,15.347 M 48.897,15.347 49.775,14.952 M 16.492,14.311 27.019,17.629 M 27.019,17.629 32.478,12.498 M 8.229,14.281 16.115,14.136 M 32.262,23.645 38.020,19.280 M 27.019,17.629 27.786,21.885 M 27.786,21.885 32.262,23.645 M 25.835,26.866 27.786,21.885 M 16.492,14.311 20.343,28.671 M 20.343,28.671 25.835,26.866 M 48.897,15.347 49.180,23.659 M 38.020,19.280 43.554,25.749 M 43.554,25.749 49.180,23.659 M 87.027,0.000 102.000,17.132 M 82.696,0.000 87.939,24.152 M 87.939,24.152 102.000,19.433 M 32.262,23.645 40.543,28.270 M 40.543,28.270 43.554,25.749 M 70.535,1.086 71.807,23.250 M 71.807,23.250 85.383,26.192 M 85.383,26.192 87.939,24.152 M 67.780,26.363 71.807,23.250 M 57.750,13.358 65.267,27.417 M 65.267,27.417 67.780,26.363 M 25.835,26.866 30.501,35.186 M 49.180,23.659 59.405,30.407 M 59.405,30.407 60.406,30.442 M 60.406,30.442 65.267,27.417 M 8.229,14.281 12.639,33.387 M 12.639,33.387 20.343,28.671 M 52.199,37.912 59.405,30.407 M 60.406,30.442 61.835,35.020 M 30.501,35.186 37.362,36.014 M 37.362,36.014 40.543,28.270 M 37.362,36.014 37.812,36.827 M 37.812,36.827 52.199,37.912 M 12.088,35.183 12.639,33.387 M 23.472,40.592 30.501,35.186 M 12.088,35.183 12.275,37.382 M 12.275,37.382 23.472,40.592 M 11.738,38.239 12.275,37.382 M 37.812,36.827 38.575,44.716 M 23.472,40.592 25.996,47.116 M 25.996,47.116 38.575,44.716 M 61.835,35.020 78.279,44.995 M 67.780,26.363 78.279,44.995 M 85.383,26.192 88.009,43.029 M 38.575,44.716 40.670,48.125 M 88.009,43.029 92.229,44.464 M 25.114,51.183 25.996,47.116 M 61.835,35.020 64.206,49.547 M 64.206,49.547 66.664,50.163 M 78.279,44.995 80.133,47.373 M 80.133,47.373 88.009,43.029 M 91.347,56.549 92.229,44.464 M 11.738,38.239 18.869,53.443 M 18.869,53.443 25.114,51.183 M 25.114,51.183 28.587,54.677 M 28.587,54.677 40.670,48.125 M 66.664,50.163 78.674,49.190 M 78.674,49.190 80.133,47.373 M 28.587,54.677 29.520,57.625 M 78.674,49.190 79.349,55.022 M 89.207,61.379 91.347,56.549 M 79.349,55.022 86.486,61.459 M 86.486,61.459 89.207,61.379 M 40.670,48.125 48.437,54.595 M 48.437,54.595 52.199,37.912 M 48.437,54.595 49.820,57.323 M 49.820,57.323 64.206,49.547 M 11.056,62.834 18.869,53.443 M 8.955,62.593 11.056,62.834 M 11.056,62.834 11.932,63.469 M 11.932,63.469 29.520,57.625 M 49.300,60.646 49.820,57.323 M 0.000,48.562 11.738,38.239 M 0.000,59.633 8.955,62.593 M 71.901,69.774 79.349,55.022 M 66.664,50.163 69.753,70.114 M 69.753,70.114 71.901,69.774 M 49.300,60.646 68.972,70.455 M 68.972,70.455 69.753,70.114 M 81.900,73.570 86.486,61.459 M 71.901,69.774 81.539,73.781 M 81.539,73.781 81.900,73.570 M 7.240,80.207 8.955,62.593 M 81.900,73.570 102.000,70.759 M 89.207,61.379 102.000,69.543 M 7.240,80.207 11.852,81.291 M 11.852,81.291 14.172,80.828 M 65.982,77.790 68.972,70.455 M 65.717,79.894 65.982,77.790 M 11.932,63.469 25.778,76.142 M 14.172,80.828 25.582,76.432 M 25.582,76.432 25.778,76.142 M 29.520,57.625 38.903,72.919 M 38.903,72.919 49.300,60.646 M 25.778,76.142 38.862,73.023 M 38.862,73.023 38.903,72.919 M 38.862,73.023 39.064,73.347 M 39.064,73.347 65.982,77.790 M 25.051,78.939 25.582,76.432 M 63.319,85.506 65.717,79.894 M 63.319,85.506 64.216,85.993 M 61.891,86.607 63.319,85.506 M 64.216,85.993 78.016,89.964 M 65.717,79.894 83.482,87.226 M 81.539,73.781 83.482,87.226 M 78.016,89.964 83.519,87.323 M 83.482,87.226 83.519,87.323 M 73.183,95.740 78.016,89.964 M 12.731,93.791 14.172,80.828 M 64.216,85.993 72.880,95.838 M 72.880,95.838 73.183,95.740 M 8.056,93.370 11.852,81.291 M 8.056,93.370 12.731,93.791 M 12.731,93.791 15.859,94.528 M 15.859,94.528 25.051,78.939 M 39.064,73.347 45.800,87.986 M 45.800,87.986 61.891,86.607 M 61.891,86.607 64.777,102.000 M 65.138,102.000 72.880,95.838 M 91.347,56.549 102.000,61.507 M 15.859,94.528 21.379,102.000 M 25.051,78.939 29.414,102.000 M 43.266,102.000 45.800,87.986 M 0.000,82.751 7.240,80.207 M 0.000,94.889 8.056,93.370 M 92.229,44.464 102.000,45.266 M 0.000,9.393 8.229,14.281 M 0.000,30.174 12.088,35.183 M 73.183,95.740 79.174,102.000 M 83.519,87.323 102.000,99.436 M 102.000,30.952 102.000,30.952 " />
    </pattern>
  </defs>
  <sodipodi:namedview
     id="base"
     pagecolor="#ffffff"
     bordercolor="#666666"
     borderopacity="1.0"
     inkscape:pageopacity="0.0"
     inkscape:pageshadow="2"
     inkscape:zoom="1"
     inkscape:cx="224.01825"
     inkscape:cy="560"
     inkscape:document-units="mm"
     inkscape:current-layer="layer1"
     showgrid="false"
     showborder="false"
     inkscape:window-width="1920"
     inkscape:window-height="1001"
     inkscape:window-x="-9"
     inkscape:window-y="-9"
     inkscape:window-maximized="1" />
  <metadata
     id="metadata5">
    <rdf:RDF>
      <cc:Work
         rdf:about="">
        <dc:format>image/svg+xml</dc:format>
        <dc:type
           rdf:resource="http://purl.org/dc/dcmitype/StillImage" />
        <dc:title></dc:title>
      </cc:Work>
    </rdf:RDF>
  </metadata>
  <g
     inkscape:label="Layer 1"
     inkscape:groupmode="layer"
     id="layer1">
    <path
       style="fill:#f0e1ef;fill-opacity:1;fill-rule:nonzero;stroke:#000000;stroke-width:2;stroke-miterlimit:4;stroke-dasharray:none;stroke-opacity:1"
       d="m 68.002048,154.84637 2.094963,-3.4091 7.766968,-6.46988 3.762044,16.68321 -14.386718,1.08469 z"
       id="path1664"
       inkscape:connector-curvature="0" />
    <path
       style="fill:#87ff87;fill-opacity:1;fill-rule:nonzero;stroke:#000000;stroke-width:2;stroke-miterlimit:4;stroke-dasharray:none;stroke-opacity:1"
       d="m 58.014027,144.88574 12.082984,6.55153 -2.094963,3.4091 -12.579075,-2.39986 -0.882118,-4.06693 z"
       id="path1662"
       inkscape:connector-curvature="0" />
    <path
       style="fill:#69d669;fill-opacity:1;fill-rule:nonzero;stroke:#000000;stroke-width:2;stroke-miterlimit:4;stroke-dasharray:none;stroke-opacity:1"
       d="m 78.726976,138.91659 0.519864,3.3228 -1.382861,2.728 -7.766968,6.46988 -12.082984,-6.55153 0.933278,-2.94815 9.38289,-15.29415 z"
       id="path1660"
       inkscape:connector-curvature="0" />
    <path
       style="fill:#ba75ba;fill-opacity:1;fill-rule:nonzero;stroke:#000000;stroke-width:2;stroke-miterlimit:4;stroke-dasharray:none;stroke-opacity:1"
       d="m 99.179992,129.44844 -3.088701,19.95123 -2.458249,0.61598 -14.386202,-7.77626 -0.519864,-3.3228 19.672183,-9.80922 z"
       id="path1658"
       inkscape:connector-curvature="0" />
    <path
       style="fill:#64ff64;fill-opacity:1;fill-rule:nonzero;stroke:#000000;stroke-width:2;stroke-miterlimit:4;stroke-dasharray:none;stroke-opacity:1"
       d="m 108.10089,150.37274 -12.009599,-0.97307 3.088701,-19.95123 2.148188,0.34003 7.44813,14.75207 z"
       id="path1656"
       inkscape:connector-curvature="0" />
    <path
       style="fill:#79ff40;fill-opacity:1;fill-rule:nonzero;stroke:#000000;stroke-width:2;stroke-miterlimit:4;stroke-dasharray:none;stroke-opacity:1"
       d="m 107.70608,154.56732 -16.443953,9.9751 2.370915,-14.52677 2.458249,-0.61598 12.009599,0.97307 1.45935,1.81694 z"
       id="path1654"
       inkscape:connector-curvature="0" />
    <path
       style="fill:#8af674;fill-opacity:1;fill-rule:nonzero;stroke:#000000;stroke-width:2;stroke-miterlimit:4;stroke-dasharray:none;stroke-opacity:1"
       d="m 89.833274,169.12043 1.428853,-4.57801 16.443953,-9.9751 -10.499096,18.63245 -2.513023,-1.0542 z"
       id="path1652"
       inkscape:connector-curvature="0" />
    <path
       style="fill:#c78e45;fill-opacity:1;fill-rule:nonzero;stroke:#000000;stroke-width:2;stroke-miterlimit:4;stroke-dasharray:none;stroke-opacity:1"
       d="m 88.832302,169.15557 -7.206279,-7.50497 -3.762044,-16.68321 1.382861,-2.728 14.386202,7.77626 -2.370915,14.52677 -1.428853,4.57801 z"
       id="path1650"
       inkscape:connector-curvature="0" />
    <path
       style="fill:#b66cb6;fill-opacity:1;fill-rule:nonzero;stroke:#000000;stroke-width:2;stroke-miterlimit:4;stroke-dasharray:none;stroke-opacity:1"
       d="m 66.789203,163.54868 0.450102,-0.81339 14.386718,-1.08469 7.206279,7.50497 -10.225214,6.74791 -5.626016,-2.08979 -3.011185,-2.5213 z"
       id="path1648"
       inkscape:connector-curvature="0" />
    <path
       style="fill:#22f922;fill-opacity:1;fill-rule:nonzero;stroke:#000000;stroke-width:2;stroke-miterlimit:4;stroke-dasharray:none;stroke-opacity:1"
       d="m 59.928124,164.37654 -7.02903,-5.40588 2.523879,-6.52415 12.579075,2.39986 -0.762743,7.88892 -0.450102,0.81339 z"
       id="path1646"
       inkscape:connector-curvature="0" />
    <path
       style="fill:#e3c999;fill-opacity:1;fill-rule:nonzero;stroke:#000000;stroke-width:2;stroke-miterlimit:4;stroke-dasharray:none;stroke-opacity:1"
       d="m 41.701846,162.18029 11.197248,-3.20963 7.02903,5.40588 -4.665866,8.3199 -5.492171,-1.80506 -7.703923,-4.71599 -0.55087,-1.79575 z"
       id="path1644"
       inkscape:connector-curvature="0" />
    <path
       style="fill:#d5a96d;fill-opacity:1;fill-rule:nonzero;stroke:#000000;stroke-width:2;stroke-miterlimit:4;stroke-dasharray:none;stroke-opacity:1"
       d="m 48.296276,146.11977 6.244579,2.25981 0.882118,4.06693 -2.523879,6.52415 -11.197248,3.20963 -0.536919,-0.8568 z"
       id="path1642"
       inkscape:connector-curvature="0" />
    <path
       style="fill:#3df53d;fill-opacity:1;fill-rule:nonzero;stroke:#000000;stroke-width:2;stroke-miterlimit:4;stroke-dasharray:none;stroke-opacity:1"
       d="m 40.483315,136.72861 0.875917,-0.6351 17.588073,5.84408 -0.933278,2.94815 -3.473172,3.49384 -6.244579,-2.25981 z"
       id="path1640"
       inkscape:connector-curvature="0" />
    <path
       style="fill:#ffff96;fill-opacity:1;fill-rule:nonzero;stroke:#000000;stroke-width:2;stroke-miterlimit:4;stroke-dasharray:none;stroke-opacity:1"
       d="m 42.158149,105.77133 1.440738,12.96303 -2.319755,-0.46302 -3.796149,-12.07885 z"
       id="path1638"
       inkscape:connector-curvature="0" />
    <path
       style="fill:#f9f5a7;fill-opacity:1;fill-rule:nonzero;stroke:#000000;stroke-width:2;stroke-miterlimit:4;stroke-dasharray:none;stroke-opacity:1"
       d="m 55.009043,123.13047 -11.410156,-4.39611 -1.440738,-12.96303 3.127976,-0.73691 9.192201,15.58923 z"
       id="path1636"
       inkscape:connector-curvature="0" />
    <path
       style="fill:#c0ff82;fill-opacity:1;fill-rule:nonzero;stroke:#000000;stroke-width:2;stroke-miterlimit:4;stroke-dasharray:none;stroke-opacity:1"
       d="m 55.204899,123.42038 -13.845667,12.67313 -0.875917,0.6351 -2.101162,0.24081 -1.715143,-17.61391 4.612122,-1.08417 2.319755,0.46302 11.410156,4.39611 z"
       id="path1634"
       inkscape:connector-curvature="0" />
    <path
       style="fill:#5dbb5d;fill-opacity:1;fill-rule:nonzero;stroke:#000000;stroke-width:2;stroke-miterlimit:4;stroke-dasharray:none;stroke-opacity:1"
       d="m 68.288854,126.53957 0.04134,0.10387 -9.38289,15.29415 -17.588073,-5.84408 13.845667,-12.67313 z"
       id="path1632"
       inkscape:connector-curvature="0" />
    <path
       style="fill:#8ec08e;fill-opacity:1;fill-rule:nonzero;stroke:#000000;stroke-width:2;stroke-miterlimit:4;stroke-dasharray:none;stroke-opacity:1"
       d="m 68.490908,126.21556 26.918253,-4.44314 2.989998,7.33495 -19.672183,9.80922 -10.396781,-12.27315 -0.04134,-0.10387 z"
       id="path1630"
       inkscape:connector-curvature="0" />
    <path
       style="fill:#87e669;fill-opacity:1;fill-rule:nonzero;stroke:#000000;stroke-width:2;stroke-miterlimit:4;stroke-dasharray:none;stroke-opacity:1"
       d="m 92.746275,114.05661 2.397787,5.61206 0.265099,2.10375 -26.918253,4.44314 6.736024,-14.6389 16.091006,1.37873 z"
       id="path1628"
       inkscape:connector-curvature="0" />
    <path
       id="path1626"
       style="fill:#f2ffbf;fill-opacity:1;fill-rule:nonzero;stroke:#000000;stroke-width:2;stroke-miterlimit:4;stroke-dasharray:none;stroke-opacity:1"
       d="m 95.366788,113.25873 c -0.104039,-0.0981 -0.201163,-0.17601 -0.257866,-0.17054 -0.0083,8e-4 -0.01212,0.004 -0.01344,0.008 -0.114724,-0.13036 -0.215194,-0.24181 -0.336931,-0.3514 l 7.851719,-8.92194 0.30334,0.0982 4.83278,5.77588 z"
       inkscape:connector-curvature="0" />
    <path
       style="fill:#d6ffa9;fill-opacity:1;fill-rule:nonzero;stroke:#000000;stroke-width:2;stroke-miterlimit:4;stroke-dasharray:none;stroke-opacity:1"
       d="m 113.21221,112.43475 -17.7648,7.33237 -2.39779,-5.61206 0.89658,-0.48731 13.80019,-3.97082 5.50302,2.64119 z"
       id="path1624"
       inkscape:connector-curvature="0" />
    <path
       style="fill:#5dff11;fill-opacity:1;fill-rule:nonzero;stroke:#000000;stroke-width:2;stroke-miterlimit:4;stroke-dasharray:none;stroke-opacity:1"
       d="m 110.96584,125.78147 -9.63766,4.007 -2.148188,-0.34003 -0.780833,-0.34107 -2.989998,-7.33495 -0.265099,-2.10375 17.764808,-7.33237 z"
       id="path1622"
       inkscape:connector-curvature="0" />
    <path
       style="fill:#a0ff63;fill-opacity:1;fill-rule:nonzero;stroke:#000000;stroke-width:2;stroke-miterlimit:4;stroke-dasharray:none;stroke-opacity:1"
       d="m 115.91334,138.10372 -7.13703,6.43682 -7.44813,-14.75207 9.63766,-4.007 0.36121,0.21085 z"
       id="path1620"
       inkscape:connector-curvature="0" />
    <path
       style="fill:#ffff67;fill-opacity:1;fill-rule:nonzero;stroke:#000000;stroke-width:2;stroke-miterlimit:4;stroke-dasharray:none;stroke-opacity:1"
       d="m 117.43624,156.5336 -7.876,-4.34392 -1.45935,-1.81694 0.67542,-5.8322 7.13703,-6.43682 2.72076,0.0796 2.13992,4.8302 0.88212,12.08505 z"
       id="path1618"
       inkscape:connector-curvature="0" />
    <path
       style="fill:#8ff952;fill-opacity:1;fill-rule:nonzero;stroke:#000000;stroke-width:2;stroke-miterlimit:4;stroke-dasharray:none;stroke-opacity:1"
       d="m 101.23413,176.31276 -4.027146,-3.11299 10.499096,-18.63245 1.85416,-2.37764 7.876,4.34392 -2.6262,16.8367 z"
       id="path1616"
       inkscape:connector-curvature="0" />
    <path
       id="path1614"
       style="fill:#f7ecbd;fill-opacity:1;fill-rule:nonzero;stroke:#000000;stroke-width:2;stroke-miterlimit:4;stroke-dasharray:none;stroke-opacity:1"
       d="m 97.432812,196.04902 -10.255705,-9.84436 7.516854,-14.05909 2.513024,1.0542 4.027145,3.11299 -1.13275,19.73626 h -0.206703 z"
       inkscape:connector-curvature="0" />
    <path
       style="fill:#dfbd3c;fill-opacity:1;fill-rule:nonzero;stroke:#000000;stroke-width:2;stroke-miterlimit:4;stroke-dasharray:none;stroke-opacity:1"
       d="m 78.323899,184.21563 0.283189,-8.31215 10.225214,-6.74791 1.000972,-0.0351 4.860687,3.02514 -7.516855,14.05909 -7.975224,-1.59422 z"
       id="path1612"
       inkscape:connector-curvature="0" />
    <path
       style="fill:#b66cb6;fill-opacity:1;fill-rule:nonzero;stroke:#000000;stroke-width:2;stroke-miterlimit:4;stroke-dasharray:none;stroke-opacity:1"
       d="m 67.447045,180.28254 5.534027,-6.46885 5.626016,2.08979 -0.283189,8.31215 -4.547008,5.7919 -9.998873,-3.03599 z"
       id="path1610"
       inkscape:connector-curvature="0" />
    <path
       style="fill:#e4c8e4;fill-opacity:1;fill-rule:nonzero;stroke:#000000;stroke-width:2;stroke-miterlimit:4;stroke-dasharray:none;stroke-opacity:1"
       d="m 61.689257,175.91743 8.28063,-4.62504 3.011185,2.5213 -5.534027,6.46885 z"
       id="path1608"
       inkscape:connector-curvature="0" />
    <path
       style="fill:#68a64a;fill-opacity:1;fill-rule:nonzero;stroke:#000000;stroke-width:2;stroke-miterlimit:4;stroke-dasharray:none;stroke-opacity:1"
       d="m 57.213044,177.67753 -1.950786,-4.98109 4.665866,-8.3199 6.861079,-0.82786 3.180684,7.74371 -8.28063,4.62504 z"
       id="path1606"
       inkscape:connector-curvature="0" />
    <path
       style="fill:#b264b2;fill-opacity:1;fill-rule:nonzero;stroke:#000000;stroke-width:2;stroke-miterlimit:4;stroke-dasharray:none;stroke-opacity:1"
       d="m 45.919159,185.25175 3.850928,-14.36037 5.492171,1.80506 1.950786,4.98109 -0.766879,4.25607 z"
       id="path1604"
       inkscape:connector-curvature="0" />
    <path
       style="fill:#c485c3;fill-opacity:1;fill-rule:nonzero;stroke:#000000;stroke-width:2;stroke-miterlimit:4;stroke-dasharray:none;stroke-opacity:1"
       d="m 37.6561,185.28172 4.410064,-19.10633 7.703923,4.71599 -3.850928,14.36037 -0.377238,0.17466 z"
       id="path1602"
       inkscape:connector-curvature="0" />
    <path
       style="fill:#bf7fbf;fill-opacity:1;fill-rule:nonzero;stroke:#000000;stroke-width:2;stroke-miterlimit:4;stroke-dasharray:none;stroke-opacity:1"
       d="m 30.427082,168.97419 11.088212,-4.59455 0.55087,1.79575 -4.410064,19.10633 -7.229018,4.29379 z"
       id="path1600"
       inkscape:connector-curvature="0" />
    <path
       style="fill:#cf9ecf;fill-opacity:1;fill-rule:nonzero;stroke:#000000;stroke-width:2;stroke-miterlimit:4;stroke-dasharray:none;stroke-opacity:1"
       d="m 30.427082,151.88014 10.737845,9.44335 0.536919,0.8568 -0.186552,2.19935 -11.088212,4.59455 z"
       id="path1598"
       inkscape:connector-curvature="0" />
    <path
       style="fill:#d2a55c;fill-opacity:1;fill-rule:nonzero;stroke:#000000;stroke-width:2;stroke-miterlimit:4;stroke-dasharray:none;stroke-opacity:1"
       d="m 30.427082,139.59872 7.955071,-2.6293 2.101162,-0.24081 7.812961,9.39116 -7.131349,15.20372 -10.737845,-9.44335 z"
       id="path1596"
       inkscape:connector-curvature="0" />
    <path
       style="fill:#94ff93;fill-opacity:1;fill-rule:nonzero;stroke:#000000;stroke-width:2;stroke-miterlimit:4;stroke-dasharray:none;stroke-opacity:1"
       d="m 30.427082,117.16288 6.239928,2.19263 1.715143,17.61391 -7.955071,2.6293 z"
       id="path1594"
       inkscape:connector-curvature="0" />
    <path
       style="fill:#3aff17;fill-opacity:1;fill-rule:nonzero;stroke:#000000;stroke-width:2;stroke-miterlimit:4;stroke-dasharray:none;stroke-opacity:1"
       d="m 30.427082,104.86234 7.055901,1.33015 3.796149,12.07885 -4.612122,1.08417 -6.239928,-2.19263 z"
       id="path1592"
       inkscape:connector-curvature="0" />
    <path
       style="fill:#ffff3a;fill-opacity:1;fill-rule:nonzero;stroke:#000000;stroke-width:2;stroke-miterlimit:4;stroke-dasharray:none;stroke-opacity:1"
       d="m 50.067227,98.562459 -4.781102,6.471961 -3.127976,0.73691 -4.675166,0.42116 -7.055901,-1.33015 v -6.299881 z"
       id="path1590"
       inkscape:connector-curvature="0" />
    <path
       style="fill:#b264b2;fill-opacity:1;fill-rule:nonzero;stroke:#000000;stroke-width:2;stroke-miterlimit:4;stroke-dasharray:none;stroke-opacity:1"
       d="m 58.651716,98.562459 -4.17339,22.061191 -9.192201,-15.58923 4.781102,-6.471961 z"
       id="path1588"
       inkscape:connector-curvature="0" />
    <path
       style="fill:#dab4a5;fill-opacity:1;fill-rule:nonzero;stroke:#000000;stroke-width:2;stroke-miterlimit:4;stroke-dasharray:none;stroke-opacity:1"
       d="m 72.874104,98.562459 2.352828,13.014201 -6.736024,14.6389 -0.202054,0.32401 -13.083955,-3.11919 -0.195856,-0.28991 -0.530717,-2.50682 4.17339,-22.061191 z"
       id="path1586"
       inkscape:connector-curvature="0" />
    <path
       style="fill:#f9f959;fill-opacity:1;fill-rule:nonzero;stroke:#000000;stroke-width:2;stroke-miterlimit:4;stroke-dasharray:none;stroke-opacity:1"
       d="M 94.016482,98.562459 91.317938,112.95539 75.226932,111.57666 72.874104,98.562459 Z"
       id="path1584"
       inkscape:connector-curvature="0" />
    <path
       style="fill:#94ff7d;fill-opacity:1;fill-rule:nonzero;stroke:#000000;stroke-width:2;stroke-miterlimit:4;stroke-dasharray:none;stroke-opacity:1"
       d="m 95.821541,98.562459 6.485389,5.161961 -8.664069,9.84488 -0.896586,0.48731 -1.428337,-1.10122 2.698544,-14.392931 z"
       id="path1582"
       inkscape:connector-curvature="0" />
    <path
       style="fill:#ffffcd;fill-opacity:1;fill-rule:nonzero;stroke:#000000;stroke-width:2;stroke-miterlimit:4;stroke-dasharray:none;stroke-opacity:1"
       d="m 107.64407,98.562459 -5.0338,5.260151 -0.30334,-0.0982 -6.485389,-5.161961 z"
       id="path1580"
       inkscape:connector-curvature="0" />
    <path
       style="fill:#ffff3b;fill-opacity:1;fill-rule:nonzero;stroke:#000000;stroke-width:2;stroke-miterlimit:4;stroke-dasharray:none;stroke-opacity:1"
       d="m 130.42718,100.78197 -17.48111,11.4577 -5.50302,-2.64119 -4.83278,-5.77587 5.0338,-5.260151 h 22.78311 z"
       id="path1578"
       inkscape:connector-curvature="0" />
    <path
       style="fill:#ffff25;fill-opacity:1;fill-rule:nonzero;stroke:#000000;stroke-width:2;stroke-miterlimit:4;stroke-dasharray:none;stroke-opacity:1"
       d="m 130.42718,128.66347 -19.10013,-2.67115 -0.36121,-0.21085 1.94303,-13.44517 0.0372,-0.0966 17.48111,-11.4577 z"
       id="path1576"
       inkscape:connector-curvature="0" />
    <path
       style="fill:#ffff7d;fill-opacity:1;fill-rule:nonzero;stroke:#000000;stroke-width:2;stroke-miterlimit:4;stroke-dasharray:none;stroke-opacity:1"
       d="m 130.42718,130.65766 -11.79308,7.52564 -2.72076,-0.0796 -4.58629,-12.1114 19.10013,2.67115 z"
       id="path1574"
       inkscape:connector-curvature="0" />
    <path
       style="fill:#ffff6e;fill-opacity:1;fill-rule:nonzero;stroke:#000000;stroke-width:2;stroke-miterlimit:4;stroke-dasharray:none;stroke-opacity:1"
       d="m 130.42718,138.52127 -9.65316,4.49223 -2.13992,-4.8302 11.79308,-7.52564 z"
       id="path1572"
       inkscape:connector-curvature="0" />
    <path
       style="fill:#ffff5d;fill-opacity:1;fill-rule:nonzero;stroke:#000000;stroke-width:2;stroke-miterlimit:4;stroke-dasharray:none;stroke-opacity:1"
       d="m 130.42718,154.3787 -8.77104,0.71985 -0.88212,-12.08505 9.65316,-4.49223 z"
       id="path1570"
       inkscape:connector-curvature="0" />
    <path
       style="fill:#ffff7e;fill-opacity:1;fill-rule:nonzero;stroke:#000000;stroke-width:2;stroke-miterlimit:4;stroke-dasharray:none;stroke-opacity:1"
       d="m 130.42718,179.7942 -13.06122,-4.38371 -2.55592,-2.04019 2.6262,-16.8367 4.2199,-1.43505 8.77104,-0.71985 z"
       id="path1568"
       inkscape:connector-curvature="0" />
    <path
       style="fill:#b5ffb4;fill-opacity:1;fill-rule:nonzero;stroke:#000000;stroke-width:2;stroke-miterlimit:4;stroke-dasharray:none;stroke-opacity:1"
       d="m 117.32772,198.56256 13.09946,-14.98771 v 14.98771 z"
       id="path1566"
       inkscape:connector-curvature="0" />
    <path
       style="fill:#75ff75;fill-opacity:1;fill-rule:nonzero;stroke:#000000;stroke-width:2;stroke-miterlimit:4;stroke-dasharray:none;stroke-opacity:1"
       d="m 112.33991,198.56256 5.02605,-23.15207 13.06122,4.38371 v 3.78065 l -13.09946,14.98771 z"
       id="path1564"
       inkscape:connector-curvature="0" />
    <path
       style="fill:#29f906;fill-opacity:1;fill-rule:nonzero;stroke:#000000;stroke-width:2;stroke-miterlimit:4;stroke-dasharray:none;stroke-opacity:1"
       d="m 99.97526,198.56256 -0.0134,-0.0858 1.27227,-22.16402 13.57591,-2.94246 2.55592,2.04019 -5.02605,23.15207 z"
       id="path1562"
       inkscape:connector-curvature="0" />
    <path
       style="fill:#e7cde6;fill-opacity:1;fill-rule:nonzero;stroke:#000000;stroke-width:2;stroke-miterlimit:4;stroke-dasharray:none;stroke-opacity:1"
       d="m 90.275109,198.56256 -11.073227,-13.95212 7.975224,1.59422 12.784748,12.27212 0.01344,0.0858 z"
       id="path1560"
       inkscape:connector-curvature="0" />
    <path
       style="fill:#b264b2;fill-opacity:1;fill-rule:nonzero;stroke:#000000;stroke-width:2;stroke-miterlimit:4;stroke-dasharray:none;stroke-opacity:1"
       d="m 75.233132,198.56256 -1.456241,-8.55503 4.547008,-5.7919 0.877983,0.39481 11.073227,13.95212 z"
       id="path1558"
       inkscape:connector-curvature="0" />
    <path
       style="fill:#ae5dae;fill-opacity:1;fill-rule:nonzero;stroke:#000000;stroke-width:2;stroke-miterlimit:4;stroke-dasharray:none;stroke-opacity:1"
       d="m 61.993115,187.10745 1.784903,-0.13591 9.998873,3.03599 1.456241,8.55503 H 61.540428 Z"
       id="path1556"
       inkscape:connector-curvature="0" />
    <path
       style="fill:#ca93ca;fill-opacity:1;fill-rule:nonzero;stroke:#000000;stroke-width:2;stroke-miterlimit:4;stroke-dasharray:none;stroke-opacity:1"
       d="m 61.905265,187.06456 -5.4591,-5.13096 0.766879,-4.25607 4.476213,-1.7601 5.757788,4.36511 -3.669027,6.689 -1.784903,0.13591 z"
       id="path1554"
       inkscape:connector-curvature="0" />
    <path
       style="fill:#e1c4e0;fill-opacity:1;fill-rule:nonzero;stroke:#000000;stroke-width:2;stroke-miterlimit:4;stroke-dasharray:none;stroke-opacity:1"
       d="m 52.179243,195.46353 -6.637322,-10.03712 0.377238,-0.17466 10.527006,-3.31815 5.4591,5.13096 z"
       id="path1552"
       inkscape:connector-curvature="0" />
    <path
       style="fill:#922592;fill-opacity:1;fill-rule:nonzero;stroke:#000000;stroke-width:2;stroke-miterlimit:4;stroke-dasharray:none;stroke-opacity:1"
       d="M 52.455195,198.56256 H 30.427082 v -8.98705 l 7.229018,-4.29379 7.885821,0.14469 6.637322,10.03712 z"
       id="path1550"
       inkscape:connector-curvature="0" />
    <path
       style="fill:#ca94ca;fill-opacity:1;fill-rule:nonzero;stroke:#000000;stroke-width:2;stroke-miterlimit:4;stroke-dasharray:none;stroke-opacity:1"
       d="m 52.455195,198.56256 -0.275952,-3.09903 9.726022,-8.39897 0.08785,0.0429 -0.452687,11.45511 z"
       id="rect815"
       inkscape:connector-curvature="0" />
  </g>
</svg>
