<?xml version="1.0" encoding="UTF-8" standalone="no"?>
<!-- Created with Inkscape (http://www.inkscape.org/) -->

<svg
   xmlns:dc="http://purl.org/dc/elements/1.1/"
   xmlns:cc="http://creativecommons.org/ns#"
   xmlns:rdf="http://www.w3.org/1999/02/22-rdf-syntax-ns#"
   xmlns:svg="http://www.w3.org/2000/svg"
   xmlns="http://www.w3.org/2000/svg"
   xmlns:sodipodi="http://sodipodi.sourceforge.net/DTD/sodipodi-0.dtd"
   xmlns:inkscape="http://www.inkscape.org/namespaces/inkscape"
   width="210mm"
   height="297mm"
   viewBox="0 0 210 297"
   version="1.1"
   id="svg8"
   inkscape:version="0.92.4 (5da689c313, 2019-01-14)"
   sodipodi:docname="Mozaiek achtergrond.svg">
  <defs
     id="defs2">
    <pattern
       patternUnits="userSpaceOnUse"
       patternTransform="translate(-62.9880894571,42.0000006658)"
       height="101.999999727"
       width="101.999999727"
       id="Voronoi6937">
      <path
         id="path817"
         style="stroke:#000000;stroke-width:0.264583333328"
         d="M 26.806,10.196 28.614,3.298 M 59.309,8.679 62.976,0.000 M 25.662,11.293 26.806,10.196 M 13.067,0.000 25.386,11.384 M 25.386,11.384 25.662,11.293 M 45.077,0.000 45.122,5.087 M 45.122,5.087 59.309,8.679 M 44.906,5.534 45.122,5.087 M 26.806,10.196 38.136,10.377 M 28.614,3.298 38.136,10.377 M 38.136,10.377 38.178,10.397 M 38.178,10.397 44.906,5.534 M 71.015,0.000 75.080,12.559 M 75.080,12.559 86.024,11.462 M 25.662,11.293 35.476,18.420 M 35.476,18.420 38.178,10.397 M 86.024,11.462 92.037,20.811 M 34.921,23.101 35.476,18.420 M 31.912,24.138 34.921,23.101 M 90.400,25.569 92.037,20.811 M 18.743,23.575 25.386,11.384 M 18.743,23.575 31.912,24.138 M 12.709,0.000 18.594,23.614 M 18.594,23.614 18.743,23.575 M 44.906,5.534 53.136,24.394 M 34.921,23.101 41.395,26.758 M 59.309,8.679 65.888,21.956 M 65.888,21.956 75.080,12.559 M 30.456,33.969 31.912,24.138 M 65.645,22.671 65.888,21.956 M 53.136,24.394 64.182,23.749 M 64.182,23.749 65.645,22.671 M 36.036,36.378 41.395,26.758 M 41.395,26.758 46.773,28.110 M 46.773,28.110 53.136,24.394 M 45.977,31.088 46.837,29.814 M 46.773,28.110 46.837,29.814 M 25.849,36.853 30.456,33.969 M 36.036,36.378 38.502,38.779 M 38.502,38.779 45.977,31.088 M 30.456,33.969 33.333,37.539 M 33.333,37.539 36.036,36.378 M 90.400,25.569 102.000,35.730 M 65.645,22.671 82.841,33.299 M 82.841,33.299 90.400,25.569 M 96.637,40.438 102.000,36.115 M 25.849,36.853 32.241,42.039 M 32.241,42.039 33.333,37.539 M 18.118,37.487 25.849,36.853 M 10.358,30.715 18.594,23.614 M 10.358,30.715 18.118,37.487 M 10.039,30.757 10.358,30.715 M 82.841,33.299 83.208,36.942 M 83.208,36.942 96.637,40.438 M 38.502,38.779 39.676,43.500 M 39.676,43.500 45.977,31.088 M 8.009,41.553 10.039,30.757 M 71.722,50.263 76.094,42.750 M 63.221,42.514 64.182,23.749 M 63.221,42.514 76.094,42.750 M 76.094,42.750 81.304,42.098 M 81.304,42.098 83.208,36.942 M 8.009,41.553 10.211,48.768 M 32.241,42.039 33.111,48.421 M 71.722,50.263 83.141,48.778 M 81.304,42.098 83.141,48.778 M 83.141,48.778 83.164,48.847 M 18.118,37.487 23.955,49.332 M 23.955,49.332 33.111,48.421 M 96.637,40.438 97.097,50.662 M 46.837,29.814 52.489,48.395 M 1.555,54.761 10.211,48.768 M 21.506,52.644 23.955,49.332 M 33.111,48.421 38.100,50.454 M 30.437,59.566 38.100,50.454 M 38.100,50.454 39.244,50.645 M 39.244,50.645 39.676,43.500 M 39.244,50.645 40.418,51.237 M 40.418,51.237 52.489,48.395 M 10.211,48.768 15.940,55.238 M 15.940,55.238 21.506,52.644 M 52.489,48.395 57.695,49.905 M 57.695,49.905 63.221,42.514 M 1.555,54.761 15.231,56.424 M 15.231,56.424 15.940,55.238 M 83.164,48.847 90.536,54.703 M 90.536,54.703 97.097,50.662 M 57.695,49.905 58.939,52.363 M 14.679,58.593 15.231,56.424 M 21.506,52.644 26.861,61.891 M 26.861,61.891 30.437,59.566 M 58.939,52.363 64.411,56.470 M 64.411,56.470 71.722,50.263 M 26.856,62.247 26.861,61.891 M 26.980,0.000 28.614,3.298 M 0.000,49.152 8.009,41.553 M 0.000,55.108 1.555,54.761 M 69.996,61.188 83.164,48.847 M 69.996,61.188 76.213,64.375 M 64.411,56.470 69.178,61.203 M 69.178,61.203 69.996,61.188 M 90.536,54.703 90.580,62.807 M 14.679,58.593 19.144,67.473 M 19.144,67.473 26.856,62.247 M 76.213,64.375 90.320,63.524 M 90.320,63.524 90.580,62.807 M 3.081,66.766 14.679,58.593 M 30.437,59.566 40.671,67.314 M 40.418,51.237 40.671,67.314 M 3.081,66.766 18.618,72.982 M 18.618,72.982 19.144,67.473 M 40.671,67.314 40.908,69.948 M 26.856,62.247 35.701,72.409 M 35.701,72.409 40.908,69.948 M 40.908,69.948 48.415,72.214 M 48.415,72.214 48.614,72.235 M 48.614,72.235 58.939,52.363 M 48.614,72.235 51.847,74.530 M 63.612,75.545 69.178,61.203 M 51.847,74.530 57.379,77.807 M 57.379,77.807 63.612,75.545 M 44.786,87.553 51.847,74.530 M 76.213,64.375 80.261,81.849 M 63.612,75.545 76.965,82.606 M 76.965,82.606 80.261,81.849 M 44.786,87.553 56.745,85.572 M 56.745,85.572 57.379,77.807 M 56.745,85.572 56.840,86.134 M 56.629,87.243 56.840,86.134 M 40.922,89.233 48.415,72.214 M 40.922,89.233 44.786,87.553 M 18.618,72.982 22.336,81.733 M 72.560,90.142 76.965,82.606 M 22.336,81.733 25.834,83.064 M 25.834,83.064 35.701,72.409 M 56.840,86.134 71.358,91.844 M 71.358,91.844 72.560,90.142 M 80.261,81.849 94.532,83.268 M 90.320,63.524 94.532,83.268 M 25.834,83.064 32.402,96.820 M 32.402,96.820 40.922,89.233 M 32.402,96.820 32.590,97.975 M 32.590,97.975 56.629,87.243 M 90.580,62.807 102.000,61.827 M 97.097,50.662 102.000,51.140 M 0.000,67.258 3.081,66.766 M 56.441,102.000 56.629,87.243 M 69.585,102.000 71.358,91.844 M 32.590,97.975 32.890,102.000 M 72.560,90.142 89.745,102.000 M 94.532,83.268 102.000,89.092 M 0.000,87.673 22.336,81.733 M 0.000,27.129 10.039,30.757 M 92.037,20.811 102.000,19.338 M 86.024,11.462 91.750,0.000 " />
    </pattern>
  </defs>
  <sodipodi:namedview
     id="base"
     pagecolor="#ffffff"
     bordercolor="#666666"
     borderopacity="1.0"
     inkscape:pageopacity="0.0"
     inkscape:pageshadow="2"
     inkscape:zoom="1.4142136"
     inkscape:cx="347.76464"
     inkscape:cy="485.62403"
     inkscape:document-units="mm"
     inkscape:current-layer="layer1"
     showgrid="false"
     showborder="false"
     inkscape:window-width="2400"
     inkscape:window-height="1271"
     inkscape:window-x="-9"
     inkscape:window-y="-9"
     inkscape:window-maximized="1" />
  <metadata
     id="metadata5">
    <rdf:RDF>
      <cc:Work
         rdf:about="">
        <dc:format>image/svg+xml</dc:format>
        <dc:type
           rdf:resource="http://purl.org/dc/dcmitype/StillImage" />
        <dc:title></dc:title>
      </cc:Work>
    </rdf:RDF>
  </metadata>
  <g
     inkscape:label="Layer 1"
     inkscape:groupmode="layer"
     id="layer1">
    <path
       style="fill:none;fill-opacity:1;fill-rule:nonzero;stroke:#010101;stroke-width:2.82117319;stroke-miterlimit:4;stroke-dasharray:none;stroke-opacity:1"
       d="M 74.567235,145.27847 86.48721,132.22353 72.346119,140.31282 Z"
       id="path1666"
       inkscape:connector-curvature="0" />
    <path
       style="fill:none;fill-opacity:1;fill-rule:nonzero;stroke:#010101;stroke-width:2.82117319;stroke-miterlimit:4;stroke-dasharray:none;stroke-opacity:1"
       d="m 73.749946,152.79324 2.22113,0.62291 22.835941,-2.98945 -10.693082,-19.54296 -1.626725,1.33979 -11.919975,13.05494 z"
       id="path1664"
       inkscape:connector-curvature="0" />
    <path
       style="fill:none;fill-opacity:1;fill-rule:nonzero;stroke:#010101;stroke-width:2.82117319;stroke-miterlimit:4;stroke-dasharray:none;stroke-opacity:1"
       d="m 57.089579,162.17611 19.360538,8.14962 -0.479041,-16.90958 -2.22113,-0.62291 -2.164408,-0.20058 z"
       id="path1662"
       inkscape:connector-curvature="0" />
    <path
       style="fill:none;fill-opacity:1;fill-rule:nonzero;stroke:#010101;stroke-width:2.82117319;stroke-miterlimit:4;stroke-dasharray:none;stroke-opacity:1"
       d="m 76.897848,173.09608 -0.447735,-2.77035 -19.360538,-8.14962 -6.765042,2.44587 -0.0098,0.37394 16.732728,10.68843 z"
       id="path1660"
       inkscape:connector-curvature="0" />
    <path
       style="fill:none;fill-opacity:1;fill-rule:nonzero;stroke:#010101;stroke-width:2.82117319;stroke-miterlimit:4;stroke-dasharray:none;stroke-opacity:1"
       d="m 91.099559,175.47944 0.376372,0.0218 19.532609,-20.90069 -2.35312,-2.58555 -9.848409,-1.58822 -22.835941,2.98945 0.479035,16.90957 0.447736,2.77035 z"
       id="path1658"
       inkscape:connector-curvature="0" />
    <path
       style="fill:none;fill-opacity:1;fill-rule:nonzero;stroke:#010101;stroke-width:2.82117319;stroke-miterlimit:4;stroke-dasharray:none;stroke-opacity:1"
       d="m 84.234788,191.61293 13.357056,-13.69795 -6.115907,-2.41382 -0.376378,-0.0217 -14.175305,17.90048 z"
       id="path1656"
       inkscape:connector-curvature="0" />
    <path
       style="fill:none;fill-opacity:1;fill-rule:nonzero;stroke:#010101;stroke-width:2.82117319;stroke-miterlimit:4;stroke-dasharray:none;stroke-opacity:1"
       d="m 108.05713,181.36202 -10.465286,-3.44704 -13.357056,13.69795 22.623802,-2.08387 z"
       id="path1654"
       inkscape:connector-curvature="0" />
    <path
       style="fill:none;fill-opacity:1;fill-rule:nonzero;stroke:#010101;stroke-width:2.82117319;stroke-miterlimit:4;stroke-dasharray:none;stroke-opacity:1"
       d="m 130.37884,163.89801 -9.01843,-4.97813 -10.35187,-4.31941 -19.532603,20.90069 6.115907,2.41382 10.465286,3.44704 11.79191,-2.37897 z"
       id="path1652"
       inkscape:connector-curvature="0" />
    <path
       style="fill:none;fill-opacity:1;fill-rule:nonzero;stroke:#010101;stroke-width:2.82117319;stroke-miterlimit:4;stroke-dasharray:none;stroke-opacity:1"
       d="m 156.7938,150.8295 -21.60221,1.5621 -13.83118,6.52828 9.01843,4.97813 1.54758,-0.0158 24.91043,-12.97992 z"
       id="path1650"
       inkscape:connector-curvature="0" />
    <path
       style="fill:none;fill-opacity:1;fill-rule:nonzero;stroke:#010101;stroke-width:2.82117319;stroke-miterlimit:4;stroke-dasharray:none;stroke-opacity:1"
       d="m 143.46219,144.48926 -8.2706,7.90234 21.60221,-1.5621 -3.47537,-7.02562 z"
       id="path1648"
       inkscape:connector-curvature="0" />
    <path
       style="fill:none;fill-opacity:1;fill-rule:nonzero;stroke:#010101;stroke-width:2.82117319;stroke-miterlimit:4;stroke-dasharray:none;stroke-opacity:1"
       d="m 119.10899,144.24142 -10.45357,7.77351 2.35312,2.58554 10.35187,4.31941 13.83118,-6.52828 8.2706,-7.90234 z"
       id="path1646"
       inkscape:connector-curvature="0" />
    <path
       style="fill:none;fill-opacity:1;fill-rule:nonzero;stroke:#010101;stroke-width:2.82117319;stroke-miterlimit:4;stroke-dasharray:none;stroke-opacity:1"
       d="m 87.993703,129.09118 0.120371,1.79256 10.693056,19.54296 9.84843,1.58823 10.45356,-7.77351 1.81834,-19.73704 -20.89634,0.6783 z"
       id="path1644"
       inkscape:connector-curvature="0" />
    <path
       style="fill:none;fill-opacity:1;fill-rule:nonzero;stroke:#010101;stroke-width:2.82117319;stroke-miterlimit:4;stroke-dasharray:none;stroke-opacity:1"
       d="m 67.680958,137.78759 4.665161,2.52523 14.141091,-8.08929 1.626725,-1.33979 -0.120371,-1.79256 -10.173949,-1.42189 z"
       id="path1642"
       inkscape:connector-curvature="0" />
    <path
       style="fill:none;fill-opacity:1;fill-rule:nonzero;stroke:#010101;stroke-width:2.82117319;stroke-miterlimit:4;stroke-dasharray:none;stroke-opacity:1"
       d="m 62.147698,150.4539 9.43784,2.13876 2.164408,0.20058 0.817293,-7.51477 -2.221116,-4.96565 -4.665162,-2.52523 -5.11289,1.22133 -2.066654,4.73298 z"
       id="path1640"
       inkscape:connector-curvature="0" />
    <path
       style="fill:none;fill-opacity:1;fill-rule:nonzero;stroke:#010101;stroke-width:2.82117319;stroke-miterlimit:4;stroke-dasharray:none;stroke-opacity:1"
       d="m 40.193575,154.89563 10.130961,9.72635 6.765043,-2.44587 14.495959,-9.58345 -9.43784,-2.13876 -17.321248,0.95822 z"
       id="path1638"
       inkscape:connector-curvature="0" />
    <path
       style="fill:none;fill-opacity:1;fill-rule:nonzero;stroke:#010101;stroke-width:2.82117319;stroke-miterlimit:4;stroke-dasharray:none;stroke-opacity:1"
       d="m 28.322496,158.8715 1.341267,-1.24741 -10.837749,-6.80491 -16.3759117,6.30322 z"
       id="path1636"
       inkscape:connector-curvature="0" />
    <path
       style="fill:none;fill-opacity:1;fill-rule:nonzero;stroke:#010101;stroke-width:2.82117319;stroke-miterlimit:4;stroke-dasharray:none;stroke-opacity:1"
       d="m 27.27841,161.15264 8.44652,9.33997 14.589823,-5.49669 0.0098,-0.37394 -10.130936,-9.72635 -10.529824,2.72846 -1.341277,1.24741 z"
       id="path1634"
       inkscape:connector-curvature="0" />
    <path
       style="fill:none;fill-opacity:1;fill-rule:nonzero;stroke:#010101;stroke-width:2.82117319;stroke-miterlimit:4;stroke-dasharray:none;stroke-opacity:1"
       d="m 34.729725,176.28716 0.995202,-5.79455 -8.446521,-9.33997 -21.9414223,8.59641 z"
       id="path1632"
       inkscape:connector-curvature="0" />
    <path
       style="fill:none;fill-opacity:1;fill-rule:nonzero;stroke:#010101;stroke-width:2.82117319;stroke-miterlimit:4;stroke-dasharray:none;stroke-opacity:1"
       d="m 48.381053,186.89134 18.666433,-11.20699 -16.732733,-10.68843 -14.589823,5.49669 -0.995201,5.79455 7.033893,9.20405 z"
       id="path1630"
       inkscape:connector-curvature="0" />
    <path
       style="fill:none;fill-opacity:1;fill-rule:nonzero;stroke:#010101;stroke-width:2.82117319;stroke-miterlimit:4;stroke-dasharray:none;stroke-opacity:1"
       d="m 60.806425,201.35941 16.117829,-7.97948 14.175305,-17.90049 -14.201711,-2.38336 -9.850362,2.58827 -18.666433,11.20699 z"
       id="path1628"
       inkscape:connector-curvature="0" />
    <path
       style="fill:none;fill-opacity:1;fill-rule:nonzero;stroke:#010101;stroke-width:2.82117319;stroke-miterlimit:4;stroke-dasharray:none;stroke-opacity:1"
       d="m 107.03749,190.12038 -0.17895,-0.59132 -22.623802,2.08387 -7.310547,1.767 -16.117818,7.97948 0.355866,1.21476 45.476341,-11.28739 z"
       id="path1626"
       inkscape:connector-curvature="0" />
    <path
       style="fill:none;fill-opacity:1;fill-rule:nonzero;stroke:#010101;stroke-width:2.82117319;stroke-miterlimit:4;stroke-dasharray:none;stroke-opacity:1"
       d="m 145.11044,186.40919 -25.2614,-7.42614 -11.79191,2.37897 -1.19853,8.16704 0.17896,0.59132 27.4649,6.00545 2.27394,-1.78986 z"
       id="path1624"
       inkscape:connector-curvature="0" />
    <path
       style="fill:none;fill-opacity:1;fill-rule:nonzero;stroke:#010101;stroke-width:2.82117319;stroke-miterlimit:4;stroke-dasharray:none;stroke-opacity:1"
       d="m 151.34561,185.61351 -7.65861,-18.37936 -11.76058,-3.35191 -1.54758,0.0158 -10.5298,15.08504 25.2614,7.42613 z"
       id="path1622"
       inkscape:connector-curvature="0" />
    <path
       style="fill:none;fill-opacity:1;fill-rule:nonzero;stroke:#010101;stroke-width:2.82117319;stroke-miterlimit:4;stroke-dasharray:none;stroke-opacity:1"
       d="m 170.37472,166.33951 -26.68772,0.89464 7.65861,18.37936 26.99762,1.49252 z"
       id="path1620"
       inkscape:connector-curvature="0" />
    <path
       style="fill:none;fill-opacity:1;fill-rule:nonzero;stroke:#010101;stroke-width:2.82117319;stroke-miterlimit:4;stroke-dasharray:none;stroke-opacity:1"
       d="m 170.78336,157.06152 -13.94651,-6.1592 -24.91043,12.97992 11.76058,3.35191 26.68772,-0.89464 0.49169,-0.75436 z"
       id="path1618"
       inkscape:connector-curvature="0" />
    <path
       style="fill:none;fill-opacity:1;fill-rule:nonzero;stroke:#010101;stroke-width:2.82117319;stroke-miterlimit:4;stroke-dasharray:none;stroke-opacity:1"
       d="m 156.92088,138.38057 -3.60245,5.42331 3.47537,7.02562 0.0423,0.0728 13.94651,6.1592 12.41172,-4.25035 -0.87007,-10.75365 z"
       id="path1616"
       inkscape:connector-curvature="0" />
    <path
       style="fill:none;fill-opacity:1;fill-rule:nonzero;stroke:#010101;stroke-width:2.82117319;stroke-miterlimit:4;stroke-dasharray:none;stroke-opacity:1"
       d="m 156.22584,134.54926 -32.53091,-11.17871 -2.76759,1.13383 -1.81835,19.73704 24.3532,0.24784 9.85624,-0.68538 3.60245,-5.42331 z"
       id="path1614"
       inkscape:connector-curvature="0" />
    <path
       style="fill:none;fill-opacity:1;fill-rule:nonzero;stroke:#010101;stroke-width:2.82117319;stroke-miterlimit:4;stroke-dasharray:none;stroke-opacity:1"
       d="m 124.15443,122.6189 -0.45948,0.75165 32.53092,11.17871 14.30041,-8.1306 3.09706,-5.00423 -11.37548,-9.83348 -20.70367,1.15391 z"
       id="path1612"
       inkscape:connector-curvature="0" />
    <path
       style="fill:none;fill-opacity:1;fill-rule:nonzero;stroke:#010101;stroke-width:2.82117319;stroke-miterlimit:4;stroke-dasharray:none;stroke-opacity:1"
       d="m 84.461602,105.34618 15.569378,19.8365 20.89636,-0.6783 2.76759,-1.13383 0.45947,-0.75165 -12.44592,-13.96483 -26.838258,-3.77806 z"
       id="path1610"
       inkscape:connector-curvature="0" />
    <path
       style="fill:none;fill-opacity:1;fill-rule:nonzero;stroke:#010101;stroke-width:2.82117319;stroke-miterlimit:4;stroke-dasharray:none;stroke-opacity:1"
       d="m 50.219922,110.24985 21.434044,0.19026 -18.0134,-7.44574 z"
       id="path1608"
       inkscape:connector-curvature="0" />
    <path
       style="fill:none;fill-opacity:1;fill-rule:nonzero;stroke:#010101;stroke-width:2.82117319;stroke-miterlimit:4;stroke-dasharray:none;stroke-opacity:1"
       d="m 66.622215,118.89954 5.11093,-8.43824 -0.07921,-0.0213 -21.434044,-0.19023 -2.164421,1.15337 z"
       id="path1606"
       inkscape:connector-curvature="0" />
    <path
       style="fill:none;fill-opacity:1;fill-rule:nonzero;stroke:#010101;stroke-width:2.82117319;stroke-miterlimit:4;stroke-dasharray:none;stroke-opacity:1"
       d="m 65.572272,123.82277 12.247454,3.84652 10.173977,1.42189 12.037277,-3.9085 -15.569378,-19.8365 -12.728457,5.11512 -5.11093,8.43824 z"
       id="path1604"
       inkscape:connector-curvature="0" />
    <path
       style="fill:none;fill-opacity:1;fill-rule:nonzero;stroke:#010101;stroke-width:2.82117319;stroke-miterlimit:4;stroke-dasharray:none;stroke-opacity:1"
       d="m 57.124761,135.25365 5.443306,3.75527 5.112891,-1.22133 10.138768,-10.1183 -12.247454,-3.84652 -5.692613,1.09086 z"
       id="path1602"
       inkscape:connector-curvature="0" />
    <path
       style="fill:none;fill-opacity:1;fill-rule:nonzero;stroke:#010101;stroke-width:2.82117319;stroke-miterlimit:4;stroke-dasharray:none;stroke-opacity:1"
       d="m 48.409402,138.28705 12.092012,5.45485 2.066653,-4.73298 -5.443306,-3.75527 z"
       id="path1600"
       inkscape:connector-curvature="0" />
    <path
       style="fill:none;fill-opacity:1;fill-rule:nonzero;stroke:#010101;stroke-width:2.82117319;stroke-miterlimit:4;stroke-dasharray:none;stroke-opacity:1"
       d="m 33.784392,138.95401 11.042058,12.45811 17.321248,-0.95822 -1.646284,-6.712 -12.092012,-5.45485 z"
       id="path1598"
       inkscape:connector-curvature="0" />
    <path
       style="fill:none;fill-opacity:1;fill-rule:nonzero;stroke:#010101;stroke-width:2.82117319;stroke-miterlimit:4;stroke-dasharray:none;stroke-opacity:1"
       d="m 18.500465,131.87566 -3.840033,11.35477 4.165582,7.58875 10.837749,6.80491 10.529812,-2.72846 4.632875,-3.48351 L 33.784392,138.95401 19.10364,131.8311 Z"
       id="path1596"
       inkscape:connector-curvature="0" />
    <path
       style="fill:none;fill-opacity:1;fill-rule:nonzero;stroke:#010101;stroke-width:2.82117319;stroke-miterlimit:4;stroke-dasharray:none;stroke-opacity:1"
       d="M 1.4001608,150.22507 14.660432,143.23043 18.500465,131.87566 1.4001608,128.43948 Z"
       id="path1594"
       inkscape:connector-curvature="0" />
    <path
       style="fill:none;fill-opacity:1;fill-rule:nonzero;stroke:#010101;stroke-width:2.82117319;stroke-miterlimit:4;stroke-dasharray:none;stroke-opacity:1"
       d="m 1.4001608,157.25289 1.0499409,-0.13049 16.3759113,-6.30322 -4.165582,-7.58875 -13.2602708,6.99464 z"
       id="path1592"
       inkscape:connector-curvature="0" />
    <path
       style="fill:none;fill-opacity:1;fill-rule:nonzero;stroke:#010101;stroke-width:2.82117319;stroke-miterlimit:4;stroke-dasharray:none;stroke-opacity:1"
       d="m 1.4001608,170.09851 3.9368266,-0.34946 21.9414226,-8.59641 1.044082,-2.28114 -25.8723934,-1.7491 -1.0499409,0.13049 z"
       id="path1590"
       inkscape:connector-curvature="0" />
    <path
       style="fill:none;fill-opacity:1;fill-rule:nonzero;stroke:#010101;stroke-width:2.82117319;stroke-miterlimit:4;stroke-dasharray:none;stroke-opacity:1"
       d="m 1.4001608,191.45909 40.3634572,-5.96788 -7.033893,-9.20405 -29.3927376,-6.53811 -3.9368266,0.34946 z"
       id="path1588"
       inkscape:connector-curvature="0" />
    <path
       style="fill:none;fill-opacity:1;fill-rule:nonzero;stroke:#010101;stroke-width:2.82117319;stroke-miterlimit:4;stroke-dasharray:none;stroke-opacity:1"
       d="m 61.588523,205.756 -0.426236,-3.18183 -0.355866,-1.21476 -12.425372,-14.46807 -6.617434,-1.40013 -40.3634579,5.96788 V 205.756 Z"
       id="path1586"
       inkscape:connector-curvature="0" />
    <path
       style="fill:none;fill-opacity:1;fill-rule:nonzero;stroke:#010101;stroke-width:2.82117319;stroke-miterlimit:4;stroke-dasharray:none;stroke-opacity:1"
       d="m 106.30723,205.756 0.33139,-14.46922 -45.476334,11.28739 0.426236,3.18183 z"
       id="path1584"
       inkscape:connector-curvature="0" />
    <path
       style="fill:none;fill-opacity:1;fill-rule:nonzero;stroke:#010101;stroke-width:2.82117319;stroke-miterlimit:4;stroke-dasharray:none;stroke-opacity:1"
       d="m 131.47965,205.756 3.02276,-9.63017 -27.46492,-6.00545 -0.39887,1.1664 -0.33139,14.46922 z"
       id="path1582"
       inkscape:connector-curvature="0" />
    <path
       style="fill:none;fill-opacity:1;fill-rule:nonzero;stroke:#010101;stroke-width:2.82117319;stroke-miterlimit:4;stroke-dasharray:none;stroke-opacity:1"
       d="m 166.54544,205.756 -29.76909,-11.42003 -2.27394,1.78986 -3.02276,9.63017 z"
       id="path1580"
       inkscape:connector-curvature="0" />
    <path
       style="fill:none;fill-opacity:1;fill-rule:nonzero;stroke:#010101;stroke-width:2.82117319;stroke-miterlimit:4;stroke-dasharray:none;stroke-opacity:1"
       d="m 190.57894,192.41137 -12.23571,-5.30534 -26.99762,-1.49252 -6.23517,0.79568 -8.33409,7.92678 29.76909,11.42003 h 24.0335 z"
       id="path1578"
       inkscape:connector-curvature="0" />
    <path
       style="fill:none;fill-opacity:1;fill-rule:nonzero;stroke:#010101;stroke-width:2.82117319;stroke-miterlimit:4;stroke-dasharray:none;stroke-opacity:1"
       d="m 190.57894,164.6448 -19.71249,0.94035 -0.49168,0.75436 7.96851,20.76652 12.23571,5.30534 z"
       id="path1576"
       inkscape:connector-curvature="0" />
    <path
       style="fill:none;fill-opacity:1;fill-rule:nonzero;stroke:#010101;stroke-width:2.82117319;stroke-miterlimit:4;stroke-dasharray:none;stroke-opacity:1"
       d="m 190.57894,153.21122 -7.38386,-0.40005 -12.41172,4.25035 0.0821,8.52363 19.71249,-0.94035 z"
       id="path1574"
       inkscape:connector-curvature="0" />
    <path
       style="fill:none;fill-opacity:1;fill-rule:nonzero;stroke:#010101;stroke-width:2.82117319;stroke-miterlimit:4;stroke-dasharray:none;stroke-opacity:1"
       d="m 190.57894,138.35881 -8.25396,3.69872 0.87008,10.75364 7.38385,0.40005 z"
       id="path1572"
       inkscape:connector-curvature="0" />
    <path
       style="fill:none;fill-opacity:1;fill-rule:nonzero;stroke:#010101;stroke-width:2.82117319;stroke-miterlimit:4;stroke-dasharray:none;stroke-opacity:1"
       d="m 190.57894,136.18474 -20.05269,-9.76608 -14.30041,8.1306 0.695,3.83131 25.4041,3.67696 8.25396,-3.69872 z"
       id="path1570"
       inkscape:connector-curvature="0" />
    <path
       style="fill:none;fill-opacity:1;fill-rule:nonzero;stroke:#010101;stroke-width:2.82117319;stroke-miterlimit:4;stroke-dasharray:none;stroke-opacity:1"
       d="m 190.57894,120.02031 -16.95562,1.39412 -3.09707,5.00423 20.05269,9.76608 z"
       id="path1568"
       inkscape:connector-curvature="0" />
    <path
       style="fill:none;fill-opacity:1;fill-rule:nonzero;stroke:#010101;stroke-width:2.82117319;stroke-miterlimit:4;stroke-dasharray:none;stroke-opacity:1"
       d="m 172.13442,100.57728 -9.88658,11.00367 11.37548,9.83348 16.95562,-1.39412 v -19.44303 z"
       id="path1566"
       inkscape:connector-curvature="0" />
    <path
       style="fill:none;fill-opacity:1;fill-rule:nonzero;stroke:#010101;stroke-width:2.82117319;stroke-miterlimit:4;stroke-dasharray:none;stroke-opacity:1"
       d="m 134.46621,100.57728 7.07795,12.15758 20.70368,-1.15391 9.88658,-11.00367 z"
       id="path1564"
       inkscape:connector-curvature="0" />
    <path
       style="fill:none;fill-opacity:1;fill-rule:nonzero;stroke:#010101;stroke-width:2.82117319;stroke-miterlimit:4;stroke-dasharray:none;stroke-opacity:1"
       d="m 117.84591,100.57728 -6.1374,8.07679 12.44592,13.96483 17.38973,-9.88404 -7.07795,-12.15758 z"
       id="path1562"
       inkscape:connector-curvature="0" />
    <path
       style="fill:none;fill-opacity:1;fill-rule:nonzero;stroke:#010101;stroke-width:2.82117319;stroke-miterlimit:4;stroke-dasharray:none;stroke-opacity:1"
       d="m 84.8018,100.57728 0.06851,4.29873 26.83827,3.77806 6.1374,-8.07679 z"
       id="path1560"
       inkscape:connector-curvature="0" />
    <path
       style="fill:none;fill-opacity:1;fill-rule:nonzero;stroke:#010101;stroke-width:2.82117319;stroke-miterlimit:4;stroke-dasharray:none;stroke-opacity:1"
       d="m 51.486902,100.57728 2.153664,2.41709 18.0134,7.44574 0.07909,0.0212 12.728431,-5.11512 0.408665,-0.47017 -0.06851,-4.29873 z"
       id="path1558"
       inkscape:connector-curvature="0" />
    <path
       style="fill:none;fill-opacity:1;fill-rule:nonzero;stroke:#010101;stroke-width:2.82117319;stroke-miterlimit:4;stroke-dasharray:none;stroke-opacity:1"
       d="m 47.533448,111.49888 0.522047,-0.0958 2.164422,-1.15337 3.420644,-7.25549 -2.153664,-2.41708 H 26.276349 Z"
       id="path1556"
       inkscape:connector-curvature="0" />
    <path
       style="fill:none;fill-opacity:1;fill-rule:nonzero;stroke:#010101;stroke-width:2.82117319;stroke-miterlimit:4;stroke-dasharray:none;stroke-opacity:1"
       d="m 34.966316,124.32176 24.913343,0.59187 5.692613,-1.09086 1.04994,-4.92323 -18.566714,-7.49633 -0.522047,0.0957 z"
       id="path1554"
       inkscape:connector-curvature="0" />
    <path
       style="fill:none;fill-opacity:1;fill-rule:nonzero;stroke:#010101;stroke-width:2.82117319;stroke-miterlimit:4;stroke-dasharray:none;stroke-opacity:1"
       d="m 34.684761,124.36253 -15.581121,7.46857 14.680752,7.12291 14.62501,-0.66696 8.715359,-3.0334 2.754898,-10.34002 -24.913343,-0.59187 z"
       id="path1552"
       inkscape:connector-curvature="0" />
    <path
       style="fill:none;fill-opacity:1;fill-rule:nonzero;stroke:#010101;stroke-width:2.82117319;stroke-miterlimit:4;stroke-dasharray:none;stroke-opacity:1"
       d="M 24.02298,100.57728 H 1.4001608 v 27.8622 l 17.1003042,3.43618 0.603174,-0.0446 15.581121,-7.46858 z"
       id="path1550"
       inkscape:connector-curvature="0" />
    <path
       style="fill:none;fill-opacity:1;fill-rule:nonzero;stroke:#010101;stroke-width:2.82117319;stroke-miterlimit:4;stroke-dasharray:none;stroke-opacity:1"
       d="m 24.02298,100.57728 10.661781,23.78525 0.281553,-0.0408 12.567133,-12.82288 -21.257099,-10.9216 z"
       id="rect815"
       inkscape:connector-curvature="0" />
    <path
       style="fill:#ff0000;stroke-width:0.70710677"
       d="m 10.404273,384.94909 c -0.5184578,31.88898 -0.07383,63.94333 -0.222352,95.89583 2.910748,2.5325 8.12097,1.89282 11.890008,3.22429 15.934942,2.99177 31.805655,6.91957 47.825988,9.13488 18.448834,-7.25195 36.030043,-16.55721 53.965233,-24.97661 1.22957,-2.85767 -2.27409,-6.0462 -2.85882,-8.98838 -10.89075,-24.61179 -21.967086,-49.14137 -32.967469,-73.70444 -6.552093,-1.39974 -13.863227,-0.26285 -20.707501,-0.68615 -18.714011,-0.0895 -37.428015,-0.18047 -56.142021,-0.27093 l -0.638856,0.30309 z"
       id="path71"
       inkscape:connector-curvature="0"
       transform="scale(0.26458333)" />
    <path
       style="fill:#ff0000;stroke-width:0.70710677"
       d="m 317.72365,404.75498 c -14.69745,4.28533 -28.63872,10.90029 -42.96088,16.28832 -6.41132,10.29979 -13.38855,20.52152 -18.53117,31.5864 -0.9333,3.8645 -3.07065,8.24439 -1.77191,12.15478 13.8391,4.91575 27.97668,9.42756 42.25378,13.04695 11.31077,2.12374 22.75443,3.81966 34.21043,4.81302 12.60208,-2.83917 25.04778,-6.80864 36.94495,-11.84128 2.60042,-1.99165 -2.08148,-4.53587 -2.83217,-6.50025 -15.55429,-19.81635 -30.84472,-39.90534 -46.69707,-59.44712 -0.19431,-0.0897 -0.4069,-0.11077 -0.61596,-0.10082 z"
       id="path73"
       inkscape:connector-curvature="0"
       transform="scale(0.26458333)" />
    <path
       style="fill:#ff0000;stroke-width:0.70710677"
       d="m 466.48262,472.09447 c -2.78553,0.20495 -5.85849,1.88649 -5.14448,5.20801 -2.02142,20.78939 -4.40909,41.57307 -5.67895,62.41875 3.02878,2.31251 8.39208,0.41313 12.30638,1.08467 34.96897,-0.0125 70.01242,1.74991 104.89891,-1.51292 5.53881,1.03969 6.60378,-5.57588 9.5298,-8.80834 2.68984,-4.17394 6.74681,-8.71028 4.77572,-14.08137 0.13664,-3.90344 -3.55828,-5.014 -6.60426,-5.91925 -36.18813,-12.94991 -72.47087,-25.69226 -109.06708,-37.43937 -1.64304,-0.42496 -3.30347,-0.94766 -5.01604,-0.95018 z"
       id="path75"
       inkscape:connector-curvature="0"
       transform="scale(0.26458333)" />
    <path
       style="fill:#ff0000;stroke-width:0.70710677"
       d="m 593.1818,576.1027 c -26.90508,12.88389 -53.09727,27.24412 -79.64481,40.85889 -0.75567,3.65899 7.07988,2.84699 9.70558,4.56561 9.20623,1.9936 18.05738,6.9142 27.67439,5.59011 29.63321,-0.97175 59.26163,-2.12691 88.89936,-2.93964 2.27202,-3.06037 0.34468,-8.39268 0.98331,-12.3136 -0.40008,-5.09071 0.81038,-10.66076 -0.598,-15.45139 -15.68682,-6.69129 -31.18942,-14.11911 -47.01983,-20.30998 z"
       id="path77"
       inkscape:connector-curvature="0"
       transform="scale(0.26458333)" />
    <path
       style="fill:#ff0000;stroke-width:0.70710677"
       d="m 433.58973,685.1753 c -6.73096,1.68147 -14.0014,2.27899 -20.38871,4.78402 -2.06738,7.75417 -3.38182,15.88503 -3.7786,23.89938 3.14505,2.3594 8.00225,2.0382 11.75771,3.39112 28.31811,6.28908 56.61776,12.94998 85.05515,18.52919 7.98234,-3.72656 13.58154,-11.11918 20.16668,-16.78505 3.71136,-3.79375 7.88964,-7.24394 11.10485,-11.46608 -0.88365,-2.88458 -5.65371,-2.1907 -8.00468,-3.62116 -25.6141,-7.6078 -51.24541,-15.29165 -76.931,-22.57493 -6.32714,1.28117 -12.65427,2.56234 -18.9814,3.84351 z"
       id="path79"
       inkscape:connector-curvature="0"
       transform="scale(0.26458333)" />
    <path
       style="fill:#ff0000;stroke-width:0.70710677"
       d="m 290.7003,659.04411 c -12.03451,3.34194 -24.31256,6.08788 -36.19646,9.79927 -21.12466,12.67471 -42.24899,25.34997 -63.37302,38.02574 -0.50806,3.60324 4.91143,6.33032 6.65613,9.56306 11.15404,12.70716 21.81047,26.08473 33.27677,38.37174 18.76616,-8.81931 37.70214,-17.96787 56.04165,-27.87341 6.38505,-6.19229 11.33516,-13.88815 17.12919,-20.67789 10.05867,-12.84639 20.41069,-25.49178 30.11715,-38.59755 -0.75576,-2.88273 -5.48964,-1.54662 -7.80929,-2.6574 -11.93879,-2.01439 -23.88365,-4.15143 -35.84212,-5.95356 z"
       id="path81"
       inkscape:connector-curvature="0"
       transform="scale(0.26458333)" />
    <path
       style="fill:#ff0000;stroke-width:0.70710677"
       d="m 149.54825,591.09557 c -11.71675,3.03532 -23.78147,5.20903 -35.0736,9.61638 -3.22158,1.67218 -6.72656,5.80704 -3.56592,9.26006 7.83955,9.96746 16.66816,19.2156 25.54838,28.24284 8.65567,-2.00057 16.9806,-6.08586 25.46434,-8.97175 6.29787,-2.52783 12.82177,-4.62452 18.93975,-7.53892 0.53898,-2.96869 -3.71747,-4.48491 -5.11187,-6.76813 -8.42764,-8.02075 -16.57173,-16.45157 -25.56579,-23.81286 l -0.46818,-0.0497 z"
       id="path83"
       inkscape:connector-curvature="0"
       transform="scale(0.26458333)" />
    <path
       style="fill:#ff0000;stroke-width:0.70710677"
       d="m 652.63677,384.92146 c -10.62253,12.06911 -21.75303,23.75053 -31.9662,36.14808 3.50904,4.91688 9.33542,8.37056 13.737,12.72163 8.16274,6.5393 15.43131,14.45895 24.48682,19.76108 12.00891,-0.0517 24.08989,-1.80269 36.11576,-2.55082 6.44814,-0.80526 13.19609,-0.60644 19.50813,-1.82578 2.1315,-4.44477 0.65763,-9.94739 1.20429,-14.75809 -0.14276,-16.4659 0.42643,-33.11607 -0.27634,-49.46478 -13.0341,-0.84323 -26.61727,-0.12561 -39.8644,-0.36277 -7.6133,0.2278 -15.45412,-0.45129 -22.94506,0.33145 z"
       id="path87"
       inkscape:connector-curvature="0"
       transform="scale(0.26458333)" />
    <path
       style="fill:#ff0000;stroke-width:0.70710677"
       d="m 16.069414,646.64212 c -3.512715,-0.1721 -7.3951259,0.50835 -5.887493,5.02157 0,21.77622 0,43.55243 0,65.32865 2.818039,2.30425 7.967208,-0.79358 11.638716,-0.55386 41.639847,-6.29853 83.405213,-11.87077 124.944763,-18.77142 1.86283,-2.16936 -2.03928,-4.57551 -2.78424,-6.63051 -4.97496,-6.61025 -9.4564,-13.8132 -15.28013,-19.66088 -23.39983,-6.66278 -47.387142,-11.1404 -71.080807,-16.6612 -13.819792,-2.66831 -27.508798,-6.8435 -41.550809,-8.07235 z"
       id="path89"
       inkscape:connector-curvature="0"
       transform="scale(0.26458333)" />
    <path
       style="fill:#ff0000;stroke-width:0.70710677"
       d="m 331.25398,503.23203 c -10.91779,9.89282 -20.38339,21.43476 -30.5145,32.16546 -4.79838,5.46656 -10.06847,10.62462 -14.5829,16.27688 -0.41325,7.31933 -1.86067,14.69226 -2.09508,21.95207 2.48015,2.46214 6.78892,0.21999 9.87334,0.42063 23.34459,-2.89129 46.74567,-5.59856 69.96344,-9.33404 1.67791,-2.32903 -2.01116,-5.11897 -2.46714,-7.50704 -9.48997,-17.98397 -18.83456,-36.07486 -29.09303,-53.63007 -0.26159,-0.32498 -0.68944,-0.45537 -1.08413,-0.34389 z"
       id="path91"
       inkscape:connector-curvature="0"
       transform="scale(0.26458333)" />
    <path
       style="fill:#ff6600;stroke-width:0.70710677"
       d="m 181.23271,426.53857 c -12.08083,12.67713 -24.87779,24.91564 -36.51387,37.86483 2.2688,2.38381 7.34718,0.61349 10.69062,1.33196 24.07405,0.3712 48.17343,1.97943 72.24371,0.98676 5.46851,-0.74328 11.45139,-1.18175 16.34355,-3.40433 0.56526,-3.55557 2.06807,-7.10584 1.90035,-10.724 -9.30489,-4.75015 -19.50808,-8.12405 -29.16209,-12.31646 -11.46847,-4.65986 -22.94114,-9.31034 -34.41123,-13.96664 l -0.69217,0.14457 z"
       id="path93"
       inkscape:connector-curvature="0"
       transform="scale(0.26458333)" />
    <path
       style="fill:#ff6600;stroke-width:0.70710677"
       d="m 331.88374,403.26205 c -1.47972,2.37335 2.24261,4.62898 3.1073,6.7334 14.64475,19.66341 30.07897,38.72178 45.13341,58.07045 10.19653,0.5234 20.74722,-0.63089 31.09002,-0.70689 15.64649,-0.88748 31.46549,-0.25428 46.99556,-2.44609 3.96571,-0.36446 4.55521,-3.47604 1.14336,-5.50533 -13.28405,-14.66768 -26.18554,-29.84786 -39.67516,-44.22969 -29.03926,-4.35654 -58.13585,-8.42353 -87.27244,-12.06225 z"
       id="path95"
       inkscape:connector-curvature="0"
       transform="scale(0.26458333)" />
    <path
       style="fill:#ff6600;stroke-width:0.70710677"
       d="m 447.61171,475.81093 c -23.11548,0.54753 -46.31731,0.99452 -69.36145,2.22056 -13.44327,4.63445 -27.35128,8.27928 -40.44864,13.73491 0.52365,4.41738 4.19367,8.2424 5.89295,12.42015 10.78565,19.93636 21.70584,39.79749 32.56841,59.69231 10.41968,2.63941 21.49129,3.68229 32.1554,5.75077 8.61319,-5.10692 16.4502,-11.86257 24.72664,-17.64038 3.95037,-3.42682 9.13783,-5.90363 12.41995,-9.8774 2.2876,-21.77214 4.40257,-43.58616 5.94412,-65.41842 -0.76371,-1.55325 -2.57891,-0.628 -3.89738,-0.8825 z"
       id="path97"
       inkscape:connector-curvature="0"
       transform="scale(0.26458333)" />
    <path
       style="fill:#ff6600;stroke-width:0.70710677"
       d="m 420.68917,590.53486 c -22.32732,22.94141 -43.84965,46.68818 -65.8507,69.93452 -0.0555,3.33243 6.01893,2.88233 8.32094,4.67215 15.58615,5.4222 31.08686,11.47755 47.16623,15.21799 13.38398,-3.08662 27.18554,-4.86455 40.24432,-9.1192 11.78368,-16.22419 23.2304,-32.72512 34.54051,-49.28893 -0.37147,-2.939 -4.98333,-3.28175 -6.95425,-5.15901 -18.04939,-10.47084 -37.23938,-18.7795 -56.6315,-26.39839 l -0.69727,0.11755 z"
       id="path99"
       inkscape:connector-curvature="0"
       transform="scale(0.26458333)" />
    <path
       style="fill:#ff6600;stroke-width:0.70710677"
       d="m 639.15616,633.6518 c -28.87331,0.85688 -57.78964,1.54222 -86.62334,2.96929 -2.38972,2.11993 0.69794,5.71337 1.1032,8.16969 6.87812,17.2397 14.1428,34.32307 21.27977,51.45654 4.39081,1.73487 9.75155,0.80509 14.49451,1.52829 25.23295,1.31327 50.46283,3.37578 75.7127,3.98493 2.78335,-1.33162 -0.90767,-4.9772 -0.99587,-7.09382 -7.63261,-20.15057 -15.25011,-40.30799 -23.06233,-60.3893 -0.56361,-0.51896 -1.13433,-0.7892 -1.90864,-0.62562 z"
       id="path101"
       inkscape:connector-curvature="0"
       transform="scale(0.26458333)" />
    <path
       style="fill:#ff6600;stroke-width:0.70710677"
       d="m 573.56925,706.2062 c -7.85156,1.63157 -16.56516,0.38234 -23.80133,4.27165 -8.32939,6.30178 -15.26057,14.25991 -23.02378,21.22425 0.13876,3.58659 6.92027,3.20207 9.57507,5.20427 31.08174,11.88125 62.1154,23.93322 93.22748,35.7071 28.40213,0.0196 56.80425,0.0385 85.20637,0.0566 2.30442,-3.03097 0.35411,-8.39667 0.99913,-12.3136 -0.26039,-9.9398 0.51914,-20.19006 -0.38873,-29.93601 -13.92861,-6.53198 -28.42779,-12.48005 -42.62663,-18.63339 -33.05596,-1.85445 -66.11139,-3.75038 -99.16758,-5.5809 z"
       id="path103"
       inkscape:connector-curvature="0"
       transform="scale(0.26458333)" />
    <path
       style="fill:#ff6600;stroke-width:0.70710677"
       d="m 84.523425,716.66779 c -24.437075,3.61978 -48.874151,7.23956 -73.311227,10.85934 -2.1375809,2.64924 -0.370451,6.9156 -0.993737,10.16185 0.181277,11.55973 -0.5258499,23.3455 0.339111,34.76153 36.902647,0.51203 73.967762,0.0738 110.932898,0.21913 34.09026,-0.20164 68.20011,0.42182 102.27775,-0.55335 2.19892,0.33232 4.24606,-1.21128 3.22755,-3.53692 -2.58728,-8.11502 -9.59,-13.87362 -14.56429,-20.54239 -10.63432,-12.21837 -20.88779,-24.9202 -31.86721,-36.74707 -7.66614,-2.45588 -15.7034,-4.22395 -23.60586,-5.35845 -24.14499,3.57878 -48.28999,7.15756 -72.434985,10.73633 z"
       id="path105"
       inkscape:connector-curvature="0"
       transform="scale(0.26458333)" />
    <path
       style="fill:#ff6600;stroke-width:0.70710677"
       d="m 188.50127,629.49064 c -16.27622,5.72811 -32.4286,11.88938 -48.49896,18.18728 -2.51876,4.73724 -2.18959,10.77121 -3.54162,15.96244 0.19965,3.9592 4.63523,6.63746 6.47219,10.08552 6.01761,7.47606 11.35299,15.70755 17.84483,22.69131 6.87349,1.99578 14.06444,3.94541 21.10824,4.59344 20.57394,-11.78775 41.02977,-23.86901 61.00868,-36.62455 -0.0378,-3.10693 -5.11621,-3.88986 -7.11621,-6.00937 -15.53459,-9.61951 -30.48104,-20.33872 -46.68053,-28.80735 -0.19323,-0.055 -0.39486,-0.0928 -0.59662,-0.0787 z"
       id="path107"
       inkscape:connector-curvature="0"
       transform="scale(0.26458333)" />
    <path
       style="fill:#ff6600;stroke-width:0.70710677"
       d="m 72.687675,504.96665 c -3.873966,12.11866 -8.6349,24.13076 -11.96143,36.31518 5.00299,8.51345 9.049915,17.73497 14.934869,25.66301 12.327799,8.11156 24.691166,16.33577 37.705916,23.27513 12.30413,-2.55232 24.5264,-5.86458 36.56239,-9.50727 4.16036,-2.8898 8.68682,-5.68572 12.14649,-9.28492 -12.04133,-14.38337 -25.00488,-28.24994 -37.3496,-42.47888 -16.89381,-8.13524 -33.800861,-16.30155 -50.653424,-24.56092 -0.64887,-0.0191 -1.072933,-0.16917 -1.385211,0.57867 z"
       id="path109"
       inkscape:connector-curvature="0"
       transform="scale(0.26458333)" />
    <path
       style="fill:#ffcc00;stroke-width:0.70710677"
       d="m 99.868473,386.51522 c -0.668706,3.1796 2.473917,6.33997 3.279907,9.48566 9.61709,21.7498 19.38917,43.43148 29.09647,65.14173 3.40008,1.08682 5.64131,-5.11458 8.54146,-6.79573 9.88792,-10.26269 20.06465,-20.27284 29.65335,-30.80938 -0.19856,-2.92631 -4.90185,-3.01978 -6.7548,-4.83097 -20.93146,-10.89675 -41.79471,-21.96327 -62.96841,-32.36947 l -0.692,0.14539 z"
       id="path111"
       inkscape:connector-curvature="0"
       transform="scale(0.26458333)" />
    <path
       style="fill:#ffcc00;stroke-width:0.70710677"
       d="m 447.65038,384.97118 c -6.13054,8.37556 -12.85705,16.37636 -18.47316,25.09815 2.07126,4.5233 6.60381,7.88823 9.58557,11.94602 10.51437,11.6985 20.69979,23.92742 31.59013,35.1352 18.82419,-10.30392 37.75825,-21.0828 56.27177,-32.17418 2.63957,-2.09903 -1.74288,-5.26528 -2.27808,-7.60395 -6.35428,-10.74069 -12.23125,-22.03415 -19.11392,-32.28631 -18.84951,-0.45257 -37.86514,-0.29463 -56.77853,-0.51129 l -0.63419,0.31273 z"
       id="path113"
       inkscape:connector-curvature="0"
       transform="scale(0.26458333)" />
    <path
       style="fill:#ffcc00;stroke-width:0.70710677"
       d="m 607.29493,426.84654 c -23.62007,1.30127 -47.28225,2.40559 -70.87088,3.92224 -19.03075,10.90897 -38.39736,21.28396 -57.12926,32.68297 -0.51467,2.86165 4.27241,2.45202 6.02273,3.74487 34.54265,12.27384 69.24943,24.07429 103.92409,35.96912 8.66341,-3.71618 16.74699,-9.23317 25.16147,-13.66798 8.91564,-5.14559 18.0286,-10.03068 26.81778,-15.34688 2.70152,-4.86487 6.42117,-9.37988 8.51705,-14.45287 -12.39879,-11.10713 -25.22557,-21.83196 -37.78878,-32.79208 -1.43678,-0.57732 -3.14088,0.0522 -4.6542,-0.0594 z"
       id="path115"
       inkscape:connector-curvature="0"
       transform="scale(0.26458333)" />
    <path
       style="fill:#ffcc00;stroke-width:0.70710677"
       d="m 644.7122,483.67058 c -16.03426,8.4148 -31.9646,17.20131 -47.21181,26.99159 -2.40778,1.24496 -1.13423,4.33919 -0.54414,6.28663 4.98387,3.39911 11.66651,2.96217 17.38681,4.35915 24.55546,3.67395 49.15566,7.39579 73.7181,10.81464 9.16978,-3.95979 18.55907,-7.86116 27.1518,-12.88122 -0.14792,-2.92382 -4.8686,-3.00862 -6.71337,-4.76607 -20.99562,-10.4531 -41.92161,-21.10385 -63.26811,-30.81024 l -0.44608,-0.01 z"
       id="path117"
       inkscape:connector-curvature="0"
       transform="scale(0.26458333)" />
    <path
       style="fill:#ffcc00;stroke-width:0.70710677"
       d="m 497.08709,624.30749 c -4.47774,2.41017 -6.62102,7.82618 -9.90628,11.56372 -8.42947,12.25202 -17.59117,24.11078 -24.92978,37.04987 0.45059,2.76318 5.01026,2.03632 7.04968,3.33095 26.82897,7.76447 53.39325,16.59248 80.53903,23.18003 4.47641,-0.78494 9.76145,-0.0974 13.82173,-2.28842 -0.0472,-5.19317 -3.35449,-10.02127 -4.86217,-14.95808 -6.43383,-15.32081 -12.38883,-30.96592 -19.53439,-45.91664 -13.83024,-4.57998 -27.98848,-8.67595 -42.17782,-11.96143 z"
       id="path119"
       inkscape:connector-curvature="0"
       transform="scale(0.26458333)" />
    <path
       style="fill:#ffcc00;stroke-width:0.70710677"
       d="m 334.55473,578.32069 c -13.72772,1.99031 -27.68823,3.18982 -41.2746,5.70658 -2.22094,3.80846 -0.49743,8.84712 -0.95017,13.08009 0.70763,17.41387 0.37949,34.92445 2.23595,52.26238 4.68115,2.35085 10.72631,2.08095 15.94813,3.42979 10.71863,1.60742 21.40679,4.30212 32.20142,4.98643 8.50122,-6.3926 15.14946,-15.02216 22.69785,-22.49621 15.65488,-16.76592 31.44443,-33.41594 46.80163,-50.4518 -0.28306,-3.98183 -4.98354,-6.25227 -8.62201,-6.57941 -10.2529,-1.73972 -20.55422,-3.72431 -30.8486,-4.87564 -12.72987,1.64593 -25.45973,3.29186 -38.1896,4.93779 z"
       id="path121"
       inkscape:connector-curvature="0"
       transform="scale(0.26458333)" />
    <path
       style="fill:#ffcc00;stroke-width:0.70710677"
       d="m 396.70555,729.79899 c -51.61487,12.30159 -103.17298,24.9067 -154.49317,38.39507 -1.58329,0.94561 -6.56514,0.60992 -5.3544,3.41814 8.39666,1.49538 17.21747,0.55594 25.76511,0.95434 44.56818,0.18584 89.13697,0.0711 133.70543,0.10356 2.32853,-3.02055 0.52439,-8.38141 1.2462,-12.28883 0.11114,-9.96563 0.66876,-19.96112 0.29093,-29.91385 -0.33589,-0.34714 -0.59327,-0.82582 -1.1601,-0.66843 z"
       id="path123"
       inkscape:connector-curvature="0"
       transform="scale(0.26458333)" />
    <path
       style="fill:#ffcc00;stroke-width:0.70710677"
       d="m 408.30099,724.5454 c -1.49786,15.528 -1.17384,31.43927 -1.43216,47.12757 3.01813,2.31637 8.40105,0.32608 12.31764,0.95971 24.59777,-0.10538 49.19555,-0.21076 73.79332,-0.31614 3.02272,-4.38963 3.59622,-10.52648 5.60789,-15.63354 0.86675,-3.93742 3.10924,-7.81207 3.1467,-11.80551 -30.68473,-7.2788 -61.75758,-13.61279 -92.59094,-20.53096 l -0.68819,0.16246 z"
       id="path125"
       inkscape:connector-curvature="0"
       transform="scale(0.26458333)" />
    <path
       style="fill:#ffcc00;stroke-width:0.70710677"
       d="m 202.85885,575.09314 c -10.62263,0.71324 -21.33953,0.97176 -31.90405,1.96526 -3.60196,3.0483 -8.02053,5.39649 -11.13969,8.85264 9.37492,10.0591 19.74104,19.51533 29.79239,29.03696 2.65948,3.3027 6.78174,-0.84766 9.9412,-1.15062 16.14033,-4.61557 29.22843,-15.53763 43.17409,-24.35867 4.38529,-3.3813 9.77997,-5.88985 13.40523,-10.07807 -0.965,-2.72389 -5.51117,-1.70416 -7.80856,-2.93063 -7.45678,-1.65131 -14.86337,-4.04981 -22.57395,-2.62504 -7.62889,0.42939 -15.25777,0.85878 -22.88666,1.28817 z"
       id="path127"
       inkscape:connector-curvature="0"
       transform="scale(0.26458333)" />
    <path
       style="fill:#00ff00;stroke-width:0.70710677"
       d="m 132.72546,474.53344 c -16.00385,7.88666 -32.53282,15.11172 -48.210654,23.40977 1.49916,3.17593 6.990946,3.71097 9.986996,5.8707 11.056398,5.06908 21.724578,11.04951 32.943838,15.69953 11.67991,1.58282 23.54666,-0.47793 35.28157,-0.55768 9.04239,-0.75537 18.45703,0.42291 26.86883,-3.66495 7.42618,-2.84764 15.52626,-4.65376 22.53392,-8.14898 2.37582,-9.9611 5.80609,-19.88498 7.54201,-29.86835 -9.02066,-1.52955 -18.56554,-0.71284 -27.77731,-1.32927 -19.71892,-0.45502 -39.46695,-1.16165 -59.1692,-1.41077 z"
       id="path129"
       inkscape:connector-curvature="0"
       transform="scale(0.26458333)" />
    <path
       style="fill:#00ff00;stroke-width:0.70710677"
       d="m 713.81394,627.40937 c -20.89279,0.80538 -41.78975,1.68746 -62.66182,2.90715 -2.23985,2.00277 1.46344,5.45306 1.57442,7.93562 8.24848,21.65686 16.36879,43.37444 25.08434,64.84528 11.64234,6.15921 24.17418,10.78834 36.19088,16.27174 3.24516,-1.5049 0.51556,-7.60194 1.43781,-10.8123 0.0512,-26.73789 0.356,-53.47894 0.12418,-80.21527 -0.14883,-0.90364 -1.01967,-1.01162 -1.74981,-0.93222 z"
       id="path131"
       inkscape:connector-curvature="0"
       transform="scale(0.26458333)" />
    <path
       style="fill:#00ff00;stroke-width:0.70710677"
       d="m 697.61539,582.60338 c -12.3499,0.87331 -23.6293,6.83284 -35.38537,10.22311 -3.79057,1.74939 -8.65494,2.04156 -11.76291,4.71729 0.12199,7.59507 -0.77747,15.40424 -0.0276,22.86772 15.95117,0.4295 32.06137,-1.18001 48.06226,-1.7337 5.65723,-0.53157 11.60282,-0.17923 17.07305,-1.42618 0.2088,-11.05169 0.46974,-22.40881 -0.12857,-33.38915 -5.67093,-0.9961 -11.92289,-1.14233 -17.83084,-1.25909 z"
       id="path133"
       inkscape:connector-curvature="0"
       transform="scale(0.26458333)" />
    <path
       style="fill:#00ff00;stroke-width:0.70710677"
       d="m 199.55534,421.77526 c 0.5376,3.50746 6.86967,3.24759 9.56728,5.29278 13.29319,5.27449 26.40417,11.10437 39.915,15.77956 3.4143,-2.00158 4.69961,-6.70227 7.12493,-9.77796 1.21909,-3.46417 5.92724,-7.02971 5.05263,-10.48847 -20.19227,-0.89297 -40.59469,-1.06005 -60.87678,-1.17603 l -0.63929,0.30217 z"
       id="path135"
       inkscape:connector-curvature="0"
       transform="scale(0.26458333)" />
    <path
       style="fill:#00ff00;stroke-width:0.70710677"
       d="m 262.38012,384.63835 c -17.2623,0.23308 -34.59691,-0.35613 -51.81491,0.73887 -2.02203,2.56466 3.36219,2.81185 4.75046,3.9428 18.49744,7.56097 36.79304,15.84784 55.55111,22.63861 15.13861,-5.12005 29.82062,-11.53945 44.7245,-17.30754 0.44071,-2.66471 2.60525,-10.19271 -1.76914,-10.05979 -17.14734,0.0157 -34.29468,0.0314 -51.44202,0.0471 z"
       id="path137"
       inkscape:connector-curvature="0"
       transform="scale(0.26458333)" />
    <path
       style="fill:#00ff00;stroke-width:0.70710677"
       d="m 562.32321,384.70187 c -14.88959,0.23554 -29.96523,-0.24128 -44.73446,0.55159 -0.16084,3.53795 3.7623,6.89995 5.11054,10.36051 5.20516,8.43993 9.67718,17.64643 15.33713,25.61121 23.51413,-1.4407 47.36529,-2.24552 70.94894,-4.13312 5.98672,-2.65376 9.38251,-9.00526 14.03719,-13.36475 5.09328,-6.03505 11.04973,-11.59514 15.57291,-17.9482 -3.30031,-1.98226 -8.3434,-0.31075 -12.29267,-0.90625 -21.32615,-0.16235 -42.65285,-0.22272 -63.97958,-0.17099 z"
       id="path139"
       inkscape:connector-curvature="0"
       transform="scale(0.26458333)" />
    <path
       style="fill:#00ff00;stroke-width:0.70710677"
       d="m 451.30883,550.25049 c -10.95394,8.4536 -22.68691,16.24019 -33.1553,25.10919 4.72306,6.64818 13.56074,8.3488 20.5269,11.88244 6.68244,2.51496 13.19685,6.04211 20.04197,7.84474 16.6515,-7.33454 33.04319,-15.28111 49.48367,-23.06107 6.71874,-6.78013 14.3037,-12.98719 20.48952,-20.1194 -3.16791,-2.16576 -8.35055,-0.53928 -12.27392,-1.25312 -21.68612,-0.56687 -43.47146,-0.85111 -65.11284,-0.40278 z"
       id="path141"
       inkscape:connector-curvature="0"
       transform="scale(0.26458333)" />
    <path
       style="fill:#00ff00;stroke-width:0.70710677"
       d="m 52.721576,582.19873 c -5.50654,2.32278 -11.352378,4.08792 -16.534146,7.06002 -0.254156,3.55985 6.18162,1.19405 8.494087,2.24217 17.799239,1.02265 35.592152,3.03321 53.399854,3.44369 2.750079,-2.23346 -2.978601,-3.72162 -4.145966,-5.05471 -7.91559,-4.73884 -15.536801,-10.41599 -23.708793,-14.44735 -5.835012,2.25206 -11.670024,4.50412 -17.505036,6.75618 z"
       id="path143"
       inkscape:connector-curvature="0"
       transform="scale(0.26458333)" />
    <path
       style="fill:#00ff00;stroke-width:0.70710677"
       d="m 11.872348,491.53438 c -2.4820327,1.8994 -0.941713,6.08949 -1.542933,8.85091 -0.268755,19.28665 -0.09799,38.57639 -0.147494,57.86434 2.414788,2.38778 6.307442,-2.577 9.259762,-3.2628 10.666024,-5.86044 21.807432,-11.11608 32.195754,-17.31511 3.809713,-11.43134 7.903264,-22.77603 11.438005,-34.29468 -1.151917,-2.74959 -5.625996,-1.79621 -7.985335,-3.01901 -14.363423,-3.13176 -28.830602,-5.86158 -43.217759,-8.82365 z"
       id="path145"
       inkscape:connector-curvature="0"
       transform="scale(0.26458333)" />
    <path
       style="fill:#00ff00;stroke-width:0.70710677"
       d="m 101.41665,615.47418 c -20.682467,7.27981 -41.203133,15.16697 -61.399518,23.69913 -1.33646,2.83913 4.092162,2.31389 5.775485,3.17189 26.689374,5.97402 53.324747,12.46459 80.160083,17.62561 3.09536,-2.05444 2.50056,-6.77488 3.414,-10.01965 0.29132,-6.94831 -6.64501,-11.20952 -10.34797,-16.22797 -5.82761,-5.98948 -11.00262,-12.89531 -17.31482,-18.26696 l -0.0746,-10e-4 z"
       id="path147"
       inkscape:connector-curvature="0"
       transform="scale(0.26458333)" />
    <path
       style="fill:#00ff00;stroke-width:0.70710677"
       d="m 364.9838,724.85752 c -24.73473,2.03751 -50.02815,2.96951 -73.63902,11.36237 -9.86344,4.46822 -19.68763,9.27543 -28.94671,14.84892 -0.1636,3.41121 4.85183,0.13649 6.69381,0.30823 32.4562,-8.01242 64.98161,-15.87458 97.22188,-24.67579 1.15873,-1.09211 -0.18636,-2.14097 -1.32996,-1.84373 z"
       id="path149"
       inkscape:connector-curvature="0"
       transform="scale(0.26458333)" />
    <path
       style="fill:#0066ff;stroke-width:0.70710677"
       d="m 274.42303,581.87694 c -6.98801,1.39904 -12.40509,6.85995 -18.51045,10.23924 -9.06025,6.35411 -18.96649,11.68242 -27.37829,18.87229 -1.38804,3.38538 4.39809,3.34583 6.21233,4.82529 15.76553,6.51812 31.3144,13.76182 47.3151,19.60028 2.69429,-1.48667 1.02067,-5.72986 1.57994,-8.23393 -0.32804,-13.98231 -0.041,-28.07217 -1.33135,-41.98032 -1.15336,-3.11956 -5.08693,-3.33797 -7.88728,-3.32285 z"
       id="path153"
       inkscape:connector-curvature="0"
       transform="scale(0.26458333)" />
    <path
       style="fill:#0066ff;stroke-width:0.70710677"
       d="m 208.82507,620.47089 c -2.30934,1.34998 -5.9483,1.25238 -7.4412,3.61563 2.93164,3.64697 7.97586,5.51134 11.67831,8.45766 13.77388,8.75636 27.34956,18.09586 41.41961,26.22234 9.78027,-2.60121 19.82712,-4.56566 29.33665,-8.00743 2.5578,-1.36796 0.21719,-3.90116 -1.78297,-4.22469 -21.70596,-10.14046 -44.00857,-18.93852 -66.02057,-28.38371 -2.43821,0.18226 -4.81504,1.67597 -7.18983,2.3202 z"
       id="path155"
       inkscape:connector-curvature="0"
       transform="scale(0.26458333)" />
    <path
       style="fill:#0066ff;stroke-width:0.70710677"
       d="m 597.15513,528.3647 c -4.19513,1.10583 -5.42509,6.45412 -8.13397,9.36174 -2.86578,3.40161 -5.36226,7.24127 -1.65655,11.10925 3.16427,5.96438 5.81347,12.3089 9.28919,18.04285 16.49696,7.09672 32.82887,14.89882 49.42842,21.55709 13.50213,-4.67081 27.07079,-9.15908 40.50534,-14.01922 1.61525,-2.76571 -0.20139,-6.61422 0.082,-9.74053 -0.73542,-7.65293 -1.05313,-15.39406 -2.31383,-22.97144 -4.63053,-1.99321 -10.2523,-1.73461 -15.23306,-2.87334 -23.97749,-3.56895 -47.98206,-7.02364 -71.96757,-10.4664 z"
       id="path157"
       inkscape:connector-curvature="0"
       transform="scale(0.26458333)" />
    <path
       style="fill:#0066ff;stroke-width:0.70710677"
       d="m 713.90923,459.05167 c -17.93866,1.18791 -35.93825,2.61188 -53.79536,4.29374 -3.65303,2.94841 -5.78989,7.48967 -7.85689,11.60925 1.43157,2.90726 5.77884,3.34283 8.29218,5.24798 17.69346,8.9556 35.60032,17.47914 53.41255,26.1948 3.31436,-1.37823 0.57437,-7.60361 1.51941,-10.78995 0.003,-11.93796 0.41147,-23.89975 -0.014,-35.82524 -0.40884,-0.55144 -0.87266,-0.87348 -1.55784,-0.73058 z"
       id="path161"
       inkscape:connector-curvature="0"
       transform="scale(0.26458333)" />
    <path
       style="fill:#0066ff;stroke-width:0.70710677"
       d="m 713.69793,531.16965 c -6.37008,2.8649 -13.20739,5.24303 -19.09741,8.88165 0.1358,10.72467 1.09932,21.49781 2.16413,32.18441 2.09991,2.13453 6.08045,0.68271 8.8386,1.38793 3.28405,-0.0494 6.74384,0.72896 9.9094,4e-5 0.3721,-13.34784 0.47304,-26.90002 -0.14225,-40.3037 -0.0784,-0.92725 -0.41204,-2.37636 -1.67247,-2.15033 z"
       id="path163"
       inkscape:connector-curvature="0"
       transform="scale(0.26458333)" />
    <path
       style="fill:#0066ff;stroke-width:0.70710677"
       d="m 517.93155,740.28405 c -7.07726,3.01504 -7.3977,11.93566 -9.98966,18.15715 -0.9403,4.34214 -3.58287,8.73044 -3.61662,13.05637 4.93176,1.79698 10.70264,0.56749 15.9168,1.07723 25.56015,0.0444 51.15549,0.35847 76.69485,-0.2845 1.71755,-2.91438 -4.36411,-2.95456 -6.08554,-4.31761 -24.27506,-9.27651 -48.45462,-19.0425 -72.91983,-27.68864 z"
       id="path165"
       inkscape:connector-curvature="0"
       transform="scale(0.26458333)" />
    <path
       style="fill:#0066ff;stroke-width:0.70710677"
       d="m 370.06336,678.32935 c -12.24499,12.35673 -24.91009,24.41088 -36.21988,37.62305 -1.16067,3.31776 3.67466,1.71946 5.2812,1.68628 19.69818,-2.07903 39.51754,-3.16604 59.14976,-5.76872 2.68932,-3.43969 2.32417,-8.61835 3.45884,-12.76435 0.0585,-3.3385 2.02791,-7.35772 0.36258,-10.41687 -10.18546,-3.94133 -20.68017,-7.06051 -31.01327,-10.59832 l -0.68844,0.16138 z"
       id="path167"
       inkscape:connector-curvature="0"
       transform="scale(0.26458333)" />
    <path
       style="fill:#0066ff;stroke-width:0.70710677"
       d="m 563.61037,577.07911 c -17.21344,0.86827 -34.41354,2.25924 -51.58565,3.60873 -13.61121,6.44275 -27.27204,12.78312 -40.83266,19.33081 -1.60514,2.59366 3.49274,3.28041 4.87379,4.75502 6.532,3.38594 12.78319,7.92574 19.75618,10.14809 23.15613,-11.11122 45.88663,-23.17572 68.40844,-35.53074 1.57573,-0.56082 1.16749,-2.67889 -0.6201,-2.31191 z"
       id="path169"
       inkscape:connector-curvature="0"
       transform="scale(0.26458333)" />
    <path
       style="fill:#0066ff;stroke-width:0.70710677"
       d="m 162.3977,528.18931 c -7.10466,0.62543 -14.58693,0.0143 -21.47422,1.64485 -1.13039,3.11781 3.08943,5.49547 4.43225,7.95663 8.79399,9.97253 17.36043,20.4194 26.60188,29.82215 18.37523,-1.74032 37.21399,-1.43156 55.61131,-3.87218 1.8299,-2.32578 -0.63503,-5.84004 -0.78762,-8.53627 -1.41677,-3.8008 -0.78068,-9.5517 -5.92705,-10.29711 -13.03639,-5.79657 -25.98606,-11.86655 -39.07602,-17.49423 -6.46017,0.25872 -12.92035,0.51744 -19.38053,0.77616 z"
       id="path171"
       inkscape:connector-curvature="0"
       transform="scale(0.26458333)" />
    <path
       style="fill:#0066ff;stroke-width:0.70710677"
       d="m 157.34023,384.6052 c -11.82713,0.26093 -23.88673,-0.49755 -35.57078,0.39084 0.80916,3.54721 6.93944,4.01768 9.76507,6.35128 16.09072,8.19114 32.08062,16.53042 48.09063,24.83876 7.14797,-0.78818 9.14326,-8.84656 11.94485,-14.24157 1.48707,-4.06964 4.48642,-7.88817 5.05333,-12.11059 -2.09237,-3.64988 -4.87426,-6.54776 -9.44374,-5.24175 -9.94645,0.004 -19.89291,0.009 -29.83936,0.013 z"
       id="path173"
       inkscape:connector-curvature="0"
       transform="scale(0.26458333)" />
    <path
       style="fill:#0066ff;stroke-width:0.70710677"
       d="m 325.68965,384.96566 c -0.0719,3.05748 -1.07495,8.83356 3.87459,7.93568 29.92245,4.12568 59.86808,8.81569 89.77839,12.58008 5.93443,-5.97649 10.99265,-13.10938 15.69551,-19.97795 -2.76999,-2.16484 -7.90189,-0.28292 -11.54402,-0.91346 -32.34139,0 -64.68278,0 -97.02416,0 l -0.63712,0.30672 z"
       id="path175"
       inkscape:connector-curvature="0"
       transform="scale(0.26458333)" />
    <path
       style="fill:#0066ff;stroke-width:0.70710677"
       d="m 295.3393,487.8787 c -10.1348,10.26547 -20.58134,20.24332 -30.42354,30.78676 -0.0955,2.77045 3.95304,3.50319 5.89716,4.83098 4.23837,2.32943 7.88344,-2.69402 11.66084,-3.90847 14.46509,-8.31682 29.33298,-16.0291 43.34571,-25.08015 2.41688,-1.54232 -0.50508,-3.39227 -2.36439,-3.03835 -9.31869,-1.31657 -18.82883,-3.20618 -28.11578,-3.59077 z"
       id="path177"
       inkscape:connector-curvature="0"
       transform="scale(0.26458333)" />
    <path
       style="fill:#0066ff;stroke-width:0.70710677"
       d="m 12.408203,598.84889 c -3.3695693,0.95903 -1.635268,5.87074 -2.196784,8.43407 0.184557,10.07446 -0.5184301,20.37495 0.346153,30.30488 8.833343,0.16444 16.914906,-4.73242 25.216645,-7.30453 20.348262,-7.74918 40.575363,-15.81314 60.862555,-23.72116 1.657006,-3.25736 -4.940258,-1.94852 -7.067023,-2.59006 -25.712642,-1.81197 -51.42826,-3.66395 -77.161546,-5.1232 z"
       id="path179"
       inkscape:connector-curvature="0"
       transform="scale(0.26458333)" />
    <path
       style="fill:#ffff00;stroke-width:0.70710677"
       d="m 52.446743,548.67469 c -14.151393,6.69755 -27.820224,14.39867 -41.73173,21.58471 -1.2435214,5.277 -0.170167,11.19859 -0.533092,16.72059 2.464723,2.39762 6.865535,-2.13608 9.998693,-2.37485 14.291695,-5.51793 28.61725,-10.95433 42.836823,-16.65489 1.660419,-2.20986 -1.649844,-4.8952 -2.253903,-7.11111 -2.546788,-4.01859 -4.329286,-8.85501 -7.756077,-12.15893 l -0.495804,-0.0193 z"
       id="path181"
       inkscape:connector-curvature="0"
       transform="scale(0.26458333)" />
    <path
       style="fill:#ffff00;stroke-width:0.70710677"
       d="m 571.25044,548.74512 c -8.96597,0.6121 -18.0366,1.08513 -26.91011,2.15309 -6.08299,5.93408 -13.14394,11.24454 -18.24943,17.95941 2.77824,2.00542 7.29232,0.2413 10.72805,0.51387 15.57518,-1.11721 31.27305,-2.06809 46.76304,-3.42655 2.07054,-2.56382 -1.80453,-5.84758 -2.35799,-8.41431 -1.81149,-3.58942 -3.3403,-9.23932 -8.46129,-8.77446 -0.50391,-0.0263 -1.00813,-0.0142 -1.51227,-0.011 z"
       id="path183"
       inkscape:connector-curvature="0"
       transform="scale(0.26458333)" />
    <path
       style="fill:#ffff00;stroke-width:0.70710677"
       d="m 238.93787,474.51825 c -3.80392,1.20932 -10.15778,0.1421 -9.97248,5.80154 -2.36001,9.61105 -5.50357,19.11736 -7.23148,28.84116 4.92085,4.03024 10.46793,7.50722 15.83808,10.99883 5.34445,-0.81912 10.71314,-2.42459 15.9251,-3.8739 10.00297,-10.23536 20.5133,-20.0163 30.04099,-30.69423 -0.35807,-2.94175 -5.06621,-2.39421 -7.25926,-3.736 -9.67112,-3.02087 -19.32152,-6.24261 -29.04902,-8.99745 -2.76398,0.55335 -5.52795,1.1067 -8.29193,1.66005 z"
       id="path185"
       inkscape:connector-curvature="0"
       transform="scale(0.26458333)" />
    <path
       style="fill:#ffff00;stroke-width:0.70710677"
       d="m 205.47598,396.03768 c -3.10223,4.42504 -5.4695,9.54891 -7.24509,14.6849 1.79175,3.05992 7.5807,0.50475 10.84064,1.41874 10.6995,-0.0969 21.45271,0.68859 32.12162,0.28687 2.19993,-2.41256 -3.1301,-2.93649 -4.52444,-3.96006 -10.11744,-4.23158 -20.19979,-8.56643 -30.42486,-12.52851 l -0.70141,0.0896 z"
       id="path187"
       inkscape:connector-curvature="0"
       transform="scale(0.26458333)" />
    <path
       style="fill:#00ff00;stroke-width:0.70710677"
       d="m 294.93051,524.1483 c -5.16916,2.04607 -10.47558,4.78205 -14.51779,8.61649 -0.11387,2.43147 1.42629,4.99849 2.94306,6.72856 4.39251,-3.14732 7.93089,-7.93923 11.6714,-12.01944 0.87474,-0.89735 2.29443,-3.29637 -0.0967,-3.32561 z"
       id="path193"
       inkscape:connector-curvature="0"
       transform="scale(0.26458333)" />
    <path
       style="fill:#ff0000;stroke-width:0.70710677"
       d="m 206.76865,519.39605 c -2.72239,1.26669 -6.172,1.61877 -8.40379,3.67088 0.50514,2.84065 4.8552,2.84013 6.85467,4.45776 6.86375,2.91385 13.57902,6.67457 20.63963,8.84745 2.0399,-2.48422 3.70455,-5.99875 3.99543,-9.21311 -4.64398,-3.95947 -9.92935,-7.71459 -15.2608,-10.48921 -2.60838,0.90874 -5.21676,1.81749 -7.82514,2.72623 z"
       id="path219"
       inkscape:connector-curvature="0"
       transform="scale(0.26458333)" />
    <path
       style="fill:#00ff00;stroke-width:0.70710677"
       d="m 347.18321,669.09 c -6.48996,5.99098 -11.57246,13.65499 -17.41665,20.35694 -8.02025,10.16783 -16.54773,20.00779 -23.96152,30.61552 0.39623,3.34203 5.03907,0.69091 7.05035,0.58557 7.07812,-3.41441 11.6682,-10.415 17.44354,-15.54637 9.64828,-10.06534 19.74318,-19.78354 28.93272,-30.2457 -0.94613,-2.81812 -5.4485,-2.63272 -7.7671,-4.21065 -1.43191,-0.47015 -2.79882,-1.30254 -4.28134,-1.55531 z"
       id="path221"
       inkscape:connector-curvature="0"
       transform="scale(0.26458333)" />
    <path
       style="fill:#00ff00;stroke-width:0.70710677"
       d="m 247.68832,527.60512 c -3.99279,0.91854 -9.04108,0.95239 -9.59857,6.11632 -1.57574,4.72423 -5.89464,9.24282 -3.32444,14.37863 1.62993,5.37018 2.04496,11.4021 4.61588,16.35332 10.98139,2.8581 22.07812,5.83529 33.33622,7.30171 3.53347,-0.67846 1.87645,-5.83567 2.845,-8.34027 0.10643,-6.18156 2.99137,-12.86809 -0.81725,-18.42782 -2.79994,-4.67897 -3.14653,-11.66397 -9.11169,-13.45816 -4.68891,-1.69263 -8.88464,-7.2536 -14.19694,-4.7917 -1.24941,0.28933 -2.49881,0.57865 -3.74821,0.86797 z"
       id="path223"
       inkscape:connector-curvature="0"
       transform="scale(0.26458333)" />
  </g>
</svg>
